<?xml version="1.0" encoding="utf-8" standalone="no"?>
<!DOCTYPE svg PUBLIC "-//W3C//DTD SVG 1.1//EN"
  "http://www.w3.org/Graphics/SVG/1.1/DTD/svg11.dtd">
<svg xmlns:xlink="http://www.w3.org/1999/xlink" width="496.5025pt" height="855.034375pt" viewBox="0 0 496.5025 855.034375" xmlns="http://www.w3.org/2000/svg" version="1.1">
 <metadata>
  <rdf:RDF xmlns:dc="http://purl.org/dc/elements/1.1/" xmlns:cc="http://creativecommons.org/ns#" xmlns:rdf="http://www.w3.org/1999/02/22-rdf-syntax-ns#">
   <cc:Work>
    <dc:type rdf:resource="http://purl.org/dc/dcmitype/StillImage"/>
    <dc:date>2025-08-09T02:11:11.142129</dc:date>
    <dc:format>image/svg+xml</dc:format>
    <dc:creator>
     <cc:Agent>
      <dc:title>Matplotlib v3.10.5, https://matplotlib.org/</dc:title>
     </cc:Agent>
    </dc:creator>
   </cc:Work>
  </rdf:RDF>
 </metadata>
 <defs>
  <style type="text/css">*{stroke-linejoin: round; stroke-linecap: butt}</style>
 </defs>
 <g id="figure_1">
  <g id="patch_1">
   <path d="M 0 855.034375 
L 496.5025 855.034375 
L 496.5025 0 
L 0 0 
z
" style="fill: #ffffff"/>
  </g>
  <g id="axes_1">
   <g id="patch_2">
    <path d="M 52.160938 390.878125 
L 481.350937 390.878125 
L 481.350937 22.318125 
L 52.160938 22.318125 
z
" style="fill: #ffffff"/>
   </g>
   <g id="QuadContourSet_1">
    <path d="M 390.310634 307.114489 
L 394.645887 307.114489 
L 396.813513 305.253074 
L 398.98114 303.39166 
L 403.316392 303.39166 
L 407.651645 303.39166 
L 411.986897 303.39166 
L 414.154523 301.530246 
L 416.32215 299.668832 
L 420.657402 299.668832 
L 422.825028 297.807418 
L 424.992655 295.946004 
L 427.160281 294.08459 
L 429.327907 292.223176 
L 431.495533 290.361761 
L 433.66316 288.500347 
L 435.830786 286.638933 
L 437.998412 284.777519 
L 440.166039 282.916105 
L 442.333665 281.054691 
L 444.501291 279.193277 
L 446.668917 277.331862 
L 448.836544 275.470448 
L 448.836544 271.74762 
L 451.00417 269.886206 
L 453.171796 268.024792 
L 453.171796 264.301963 
L 455.339422 262.440549 
L 457.507049 260.579135 
L 457.507049 256.856307 
L 459.674675 254.994893 
L 461.842301 253.133479 
L 461.842301 249.41065 
L 464.009927 247.549236 
L 466.177554 245.687822 
L 466.177554 241.964994 
L 468.34518 240.10358 
L 470.512806 238.242165 
L 470.512806 234.519337 
L 470.512806 230.796509 
L 472.680432 228.935095 
L 474.848059 227.073681 
L 474.848059 223.350852 
L 477.015685 221.489438 
L 479.183311 219.628024 
L 479.183311 215.905196 
L 479.183311 212.182367 
L 481.350937 210.320953 
L 481.350937 208.459539 
L 481.350937 204.736711 
L 481.350937 201.013883 
L 481.350937 197.291054 
L 481.350937 193.568226 
L 481.350937 189.845398 
L 481.350937 186.122569 
L 481.350937 182.399741 
L 481.350937 178.676913 
L 481.350937 174.954085 
L 481.350937 171.231256 
L 481.350937 167.508428 
L 481.350937 163.7856 
L 481.350937 160.062771 
L 481.350937 156.339943 
L 481.350937 152.617115 
L 481.350937 148.894287 
L 481.350937 145.171458 
L 481.350937 141.44863 
L 481.350937 137.725802 
L 481.350937 134.002973 
L 481.350937 130.280145 
L 481.350937 126.557317 
L 481.350937 122.834489 
L 481.350937 119.11166 
L 481.350937 115.388832 
L 481.350937 111.666004 
L 481.350937 107.943176 
L 481.350937 104.220347 
L 481.350937 100.497519 
L 481.350937 96.774691 
L 481.350937 93.051862 
L 481.350937 89.329034 
L 481.350937 85.606206 
L 481.350937 81.883378 
L 481.350937 78.160549 
L 481.350937 74.437721 
L 481.350937 70.714893 
L 481.350937 66.992064 
L 481.350937 63.269236 
L 481.350937 59.546408 
L 481.350937 55.82358 
L 481.350937 52.100751 
L 481.350937 48.377923 
L 481.350937 44.655095 
L 481.350937 40.932266 
L 481.350937 37.209438 
L 481.350937 33.48661 
L 481.350937 29.763782 
L 481.350937 26.040953 
L 481.350937 22.318125 
L 477.015685 22.318125 
L 472.680432 22.318125 
L 468.34518 22.318125 
L 464.009927 22.318125 
L 459.674675 22.318125 
L 455.339422 22.318125 
L 451.00417 22.318125 
L 446.668917 22.318125 
L 442.333665 22.318125 
L 437.998412 22.318125 
L 433.66316 22.318125 
L 429.327907 22.318125 
L 424.992655 22.318125 
L 420.657402 22.318125 
L 416.32215 22.318125 
L 411.986897 22.318125 
L 407.651645 22.318125 
L 403.316392 22.318125 
L 398.98114 22.318125 
L 394.645887 22.318125 
L 390.310634 22.318125 
L 385.975382 22.318125 
L 381.640129 22.318125 
L 377.304877 22.318125 
L 372.969624 22.318125 
L 368.634372 22.318125 
L 364.299119 22.318125 
L 359.963867 22.318125 
L 355.628614 22.318125 
L 351.293362 22.318125 
L 346.958109 22.318125 
L 342.622857 22.318125 
L 338.287604 22.318125 
L 333.952352 22.318125 
L 329.617099 22.318125 
L 325.281847 22.318125 
L 320.946594 22.318125 
L 316.611342 22.318125 
L 312.276089 22.318125 
L 307.940836 22.318125 
L 303.605584 22.318125 
L 299.270331 22.318125 
L 294.935079 22.318125 
L 290.599826 22.318125 
L 286.264574 22.318125 
L 281.929321 22.318125 
L 277.594069 22.318125 
L 273.258816 22.318125 
L 268.923564 22.318125 
L 264.588311 22.318125 
L 260.253059 22.318125 
L 255.917806 22.318125 
L 251.582554 22.318125 
L 247.247301 22.318125 
L 242.912049 22.318125 
L 238.576796 22.318125 
L 234.241544 22.318125 
L 229.906291 22.318125 
L 225.571039 22.318125 
L 221.235786 22.318125 
L 216.900533 22.318125 
L 212.565281 22.318125 
L 208.230028 22.318125 
L 203.894776 22.318125 
L 199.559523 22.318125 
L 195.224271 22.318125 
L 190.889018 22.318125 
L 186.553766 22.318125 
L 182.218513 22.318125 
L 177.883261 22.318125 
L 173.548008 22.318125 
L 169.212756 22.318125 
L 164.877503 22.318125 
L 160.542251 22.318125 
L 156.206998 22.318125 
L 151.871746 22.318125 
L 147.536493 22.318125 
L 143.201241 22.318125 
L 138.865988 22.318125 
L 134.530735 22.318125 
L 130.195483 22.318125 
L 125.86023 22.318125 
L 121.524978 22.318125 
L 117.189725 22.318125 
L 112.854473 22.318125 
L 108.51922 22.318125 
L 104.183968 22.318125 
L 99.848715 22.318125 
L 95.513463 22.318125 
L 91.17821 22.318125 
L 86.842958 22.318125 
L 82.507705 22.318125 
L 78.172453 22.318125 
L 73.8372 22.318125 
L 69.501948 22.318125 
L 65.166695 22.318125 
L 60.831443 22.318125 
L 56.49619 22.318125 
L 52.160938 22.318125 
L 52.160938 26.040953 
L 52.160938 29.763782 
L 52.160938 33.48661 
L 52.160938 37.209438 
L 52.160938 40.932266 
L 52.160938 44.655095 
L 52.160938 48.377923 
L 52.160938 52.100751 
L 52.160938 55.82358 
L 52.160938 59.546408 
L 52.160938 63.269236 
L 52.160938 66.992064 
L 52.160938 70.714893 
L 52.160938 74.437721 
L 52.160938 78.160549 
L 52.160938 81.883378 
L 52.160938 85.606206 
L 52.160938 89.329034 
L 52.160938 93.051862 
L 52.160938 96.774691 
L 52.160938 100.497519 
L 52.160938 104.220347 
L 52.160938 107.943176 
L 52.160938 111.666004 
L 52.160938 115.388832 
L 52.160938 119.11166 
L 52.160938 122.834489 
L 52.160938 126.557317 
L 52.160938 130.280145 
L 52.160938 134.002973 
L 52.160938 137.725802 
L 52.160938 141.44863 
L 52.160938 145.171458 
L 52.160938 148.894287 
L 52.160938 152.617115 
L 52.160938 156.339943 
L 52.160938 160.062771 
L 52.160938 163.7856 
L 52.160938 167.508428 
L 52.160938 171.231256 
L 52.160938 174.954085 
L 52.160938 178.676913 
L 52.160938 182.399741 
L 52.160938 186.122569 
L 52.160938 189.845398 
L 52.160938 193.568226 
L 52.160938 197.291054 
L 52.160938 201.013883 
L 52.160938 204.736711 
L 52.160938 206.598125 
L 54.328564 204.736711 
L 56.49619 202.875297 
L 58.663816 201.013883 
L 58.663816 197.291054 
L 60.831443 195.42964 
L 62.999069 193.568226 
L 62.999069 189.845398 
L 65.166695 187.983984 
L 67.334321 186.122569 
L 69.501948 184.261155 
L 71.669574 182.399741 
L 71.669574 178.676913 
L 73.8372 176.815499 
L 76.004826 174.954085 
L 78.172453 173.09267 
L 80.340079 171.231256 
L 82.507705 169.369842 
L 84.675331 167.508428 
L 84.675331 163.7856 
L 86.842958 161.924186 
L 89.010584 160.062771 
L 91.17821 158.201357 
L 93.345836 156.339943 
L 93.345836 152.617115 
L 95.513463 150.755701 
L 97.681089 148.894287 
L 99.848715 147.032872 
L 102.016342 145.171458 
L 104.183968 143.310044 
L 106.351594 141.44863 
L 108.51922 139.587216 
L 110.686847 137.725802 
L 112.854473 135.864388 
L 115.022099 134.002973 
L 117.189725 132.141559 
L 119.357352 130.280145 
L 121.524978 128.418731 
L 123.692604 126.557317 
L 125.86023 124.695903 
L 130.195483 124.695903 
L 132.363109 122.834489 
L 134.530735 120.973074 
L 136.698362 119.11166 
L 138.865988 117.250246 
L 143.201241 117.250246 
L 145.368867 115.388832 
L 147.536493 113.527418 
L 151.871746 113.527418 
L 156.206998 113.527418 
L 158.374624 111.666004 
L 160.542251 109.80459 
L 164.877503 109.80459 
L 169.212756 109.80459 
L 171.380382 111.666004 
L 173.548008 113.527418 
L 177.883261 113.527418 
L 180.050887 115.388832 
L 182.218513 117.250246 
L 186.553766 117.250246 
L 188.721392 119.11166 
L 190.889018 120.973074 
L 195.224271 120.973074 
L 197.391897 122.834489 
L 199.559523 124.695903 
L 201.72715 126.557317 
L 203.894776 128.418731 
L 206.062402 130.280145 
L 208.230028 132.141559 
L 210.397655 134.002973 
L 212.565281 135.864388 
L 214.732907 137.725802 
L 216.900533 139.587216 
L 219.06816 141.44863 
L 221.235786 143.310044 
L 223.403412 145.171458 
L 225.571039 147.032872 
L 227.738665 148.894287 
L 229.906291 150.755701 
L 232.073917 152.617115 
L 232.073917 156.339943 
L 234.241544 158.201357 
L 236.40917 160.062771 
L 238.576796 161.924186 
L 240.744422 163.7856 
L 242.912049 165.647014 
L 245.079675 167.508428 
L 245.079675 171.231256 
L 247.247301 173.09267 
L 249.414927 174.954085 
L 251.582554 176.815499 
L 253.75018 178.676913 
L 253.75018 182.399741 
L 255.917806 184.261155 
L 258.085432 186.122569 
L 260.253059 187.983984 
L 262.420685 189.845398 
L 262.420685 193.568226 
L 264.588311 195.42964 
L 266.755938 197.291054 
L 266.755938 201.013883 
L 268.923564 202.875297 
L 271.09119 204.736711 
L 273.258816 206.598125 
L 275.426443 208.459539 
L 275.426443 212.182367 
L 277.594069 214.043782 
L 279.761695 215.905196 
L 281.929321 217.76661 
L 284.096948 219.628024 
L 284.096948 223.350852 
L 286.264574 225.212266 
L 288.4322 227.073681 
L 290.599826 228.935095 
L 292.767453 230.796509 
L 294.935079 232.657923 
L 297.102705 234.519337 
L 297.102705 238.242165 
L 299.270331 240.10358 
L 301.437958 241.964994 
L 303.605584 243.826408 
L 305.77321 245.687822 
L 305.77321 249.41065 
L 307.940836 251.272064 
L 310.108463 253.133479 
L 312.276089 254.994893 
L 314.443715 256.856307 
L 316.611342 258.717721 
L 318.778968 260.579135 
L 320.946594 262.440549 
L 323.11422 264.301963 
L 325.281847 266.163378 
L 327.449473 268.024792 
L 329.617099 269.886206 
L 331.784725 271.74762 
L 333.952352 273.609034 
L 336.119978 275.470448 
L 336.119978 279.193277 
L 338.287604 281.054691 
L 340.45523 282.916105 
L 342.622857 284.777519 
L 344.790483 286.638933 
L 346.958109 288.500347 
L 351.293362 288.500347 
L 353.460988 290.361761 
L 355.628614 292.223176 
L 357.796241 294.08459 
L 359.963867 295.946004 
L 364.299119 295.946004 
L 366.466746 297.807418 
L 368.634372 299.668832 
L 372.969624 299.668832 
L 375.137251 301.530246 
L 377.304877 303.39166 
L 381.640129 303.39166 
L 385.975382 303.39166 
L 388.143008 305.253074 
z
" clip-path="url(#pc687cf4db0)" style="fill: #f08080; fill-opacity: 0.8"/>
    <path d="M 56.49619 390.878125 
L 60.831443 390.878125 
L 65.166695 390.878125 
L 69.501948 390.878125 
L 73.8372 390.878125 
L 78.172453 390.878125 
L 82.507705 390.878125 
L 86.842958 390.878125 
L 91.17821 390.878125 
L 95.513463 390.878125 
L 99.848715 390.878125 
L 104.183968 390.878125 
L 108.51922 390.878125 
L 112.854473 390.878125 
L 117.189725 390.878125 
L 121.524978 390.878125 
L 125.86023 390.878125 
L 130.195483 390.878125 
L 134.530735 390.878125 
L 138.865988 390.878125 
L 143.201241 390.878125 
L 147.536493 390.878125 
L 151.871746 390.878125 
L 156.206998 390.878125 
L 160.542251 390.878125 
L 164.877503 390.878125 
L 169.212756 390.878125 
L 173.548008 390.878125 
L 177.883261 390.878125 
L 182.218513 390.878125 
L 186.553766 390.878125 
L 190.889018 390.878125 
L 195.224271 390.878125 
L 199.559523 390.878125 
L 203.894776 390.878125 
L 208.230028 390.878125 
L 212.565281 390.878125 
L 216.900533 390.878125 
L 221.235786 390.878125 
L 225.571039 390.878125 
L 229.906291 390.878125 
L 234.241544 390.878125 
L 238.576796 390.878125 
L 242.912049 390.878125 
L 247.247301 390.878125 
L 251.582554 390.878125 
L 255.917806 390.878125 
L 260.253059 390.878125 
L 264.588311 390.878125 
L 268.923564 390.878125 
L 273.258816 390.878125 
L 277.594069 390.878125 
L 281.929321 390.878125 
L 286.264574 390.878125 
L 290.599826 390.878125 
L 294.935079 390.878125 
L 299.270331 390.878125 
L 303.605584 390.878125 
L 307.940836 390.878125 
L 312.276089 390.878125 
L 316.611342 390.878125 
L 320.946594 390.878125 
L 325.281847 390.878125 
L 329.617099 390.878125 
L 333.952352 390.878125 
L 338.287604 390.878125 
L 342.622857 390.878125 
L 346.958109 390.878125 
L 351.293362 390.878125 
L 355.628614 390.878125 
L 359.963867 390.878125 
L 364.299119 390.878125 
L 368.634372 390.878125 
L 372.969624 390.878125 
L 377.304877 390.878125 
L 381.640129 390.878125 
L 385.975382 390.878125 
L 390.310634 390.878125 
L 394.645887 390.878125 
L 398.98114 390.878125 
L 403.316392 390.878125 
L 407.651645 390.878125 
L 411.986897 390.878125 
L 416.32215 390.878125 
L 420.657402 390.878125 
L 424.992655 390.878125 
L 429.327907 390.878125 
L 433.66316 390.878125 
L 437.998412 390.878125 
L 442.333665 390.878125 
L 446.668917 390.878125 
L 451.00417 390.878125 
L 455.339422 390.878125 
L 459.674675 390.878125 
L 464.009927 390.878125 
L 468.34518 390.878125 
L 472.680432 390.878125 
L 477.015685 390.878125 
L 481.350937 390.878125 
L 481.350937 387.155297 
L 481.350937 383.432468 
L 481.350937 379.70964 
L 481.350937 375.986812 
L 481.350937 372.263984 
L 481.350937 368.541155 
L 481.350937 364.818327 
L 481.350937 361.095499 
L 481.350937 357.37267 
L 481.350937 353.649842 
L 481.350937 349.927014 
L 481.350937 346.204186 
L 481.350937 342.481357 
L 481.350937 338.758529 
L 481.350937 335.035701 
L 481.350937 331.312872 
L 481.350937 327.590044 
L 481.350937 323.867216 
L 481.350937 320.144388 
L 481.350937 316.421559 
L 481.350937 312.698731 
L 481.350937 308.975903 
L 481.350937 305.253074 
L 481.350937 301.530246 
L 481.350937 297.807418 
L 481.350937 294.08459 
L 481.350937 290.361761 
L 481.350937 286.638933 
L 481.350937 282.916105 
L 481.350937 279.193277 
L 481.350937 275.470448 
L 481.350937 271.74762 
L 481.350937 268.024792 
L 481.350937 264.301963 
L 481.350937 260.579135 
L 481.350937 256.856307 
L 481.350937 253.133479 
L 481.350937 249.41065 
L 481.350937 245.687822 
L 481.350937 241.964994 
L 481.350937 238.242165 
L 481.350937 234.519337 
L 481.350937 230.796509 
L 481.350937 227.073681 
L 481.350937 223.350852 
L 481.350937 219.628024 
L 481.350937 215.905196 
L 481.350937 212.182367 
L 481.350937 210.320953 
L 479.183311 212.182367 
L 479.183311 215.905196 
L 479.183311 219.628024 
L 477.015685 221.489438 
L 474.848059 223.350852 
L 474.848059 227.073681 
L 472.680432 228.935095 
L 470.512806 230.796509 
L 470.512806 234.519337 
L 470.512806 238.242165 
L 468.34518 240.10358 
L 466.177554 241.964994 
L 466.177554 245.687822 
L 464.009927 247.549236 
L 461.842301 249.41065 
L 461.842301 253.133479 
L 459.674675 254.994893 
L 457.507049 256.856307 
L 457.507049 260.579135 
L 455.339422 262.440549 
L 453.171796 264.301963 
L 453.171796 268.024792 
L 451.00417 269.886206 
L 448.836544 271.74762 
L 448.836544 275.470448 
L 446.668917 277.331862 
L 444.501291 279.193277 
L 442.333665 281.054691 
L 440.166039 282.916105 
L 437.998412 284.777519 
L 435.830786 286.638933 
L 433.66316 288.500347 
L 431.495533 290.361761 
L 429.327907 292.223176 
L 427.160281 294.08459 
L 424.992655 295.946004 
L 422.825028 297.807418 
L 420.657402 299.668832 
L 416.32215 299.668832 
L 414.154523 301.530246 
L 411.986897 303.39166 
L 407.651645 303.39166 
L 403.316392 303.39166 
L 398.98114 303.39166 
L 396.813513 305.253074 
L 394.645887 307.114489 
L 390.310634 307.114489 
L 388.143008 305.253074 
L 385.975382 303.39166 
L 381.640129 303.39166 
L 377.304877 303.39166 
L 375.137251 301.530246 
L 372.969624 299.668832 
L 368.634372 299.668832 
L 366.466746 297.807418 
L 364.299119 295.946004 
L 359.963867 295.946004 
L 357.796241 294.08459 
L 355.628614 292.223176 
L 353.460988 290.361761 
L 351.293362 288.500347 
L 346.958109 288.500347 
L 344.790483 286.638933 
L 342.622857 284.777519 
L 340.45523 282.916105 
L 338.287604 281.054691 
L 336.119978 279.193277 
L 336.119978 275.470448 
L 333.952352 273.609034 
L 331.784725 271.74762 
L 329.617099 269.886206 
L 327.449473 268.024792 
L 325.281847 266.163378 
L 323.11422 264.301963 
L 320.946594 262.440549 
L 318.778968 260.579135 
L 316.611342 258.717721 
L 314.443715 256.856307 
L 312.276089 254.994893 
L 310.108463 253.133479 
L 307.940836 251.272064 
L 305.77321 249.41065 
L 305.77321 245.687822 
L 303.605584 243.826408 
L 301.437958 241.964994 
L 299.270331 240.10358 
L 297.102705 238.242165 
L 297.102705 234.519337 
L 294.935079 232.657923 
L 292.767453 230.796509 
L 290.599826 228.935095 
L 288.4322 227.073681 
L 286.264574 225.212266 
L 284.096948 223.350852 
L 284.096948 219.628024 
L 281.929321 217.76661 
L 279.761695 215.905196 
L 277.594069 214.043782 
L 275.426443 212.182367 
L 275.426443 208.459539 
L 273.258816 206.598125 
L 271.09119 204.736711 
L 268.923564 202.875297 
L 266.755938 201.013883 
L 266.755938 197.291054 
L 264.588311 195.42964 
L 262.420685 193.568226 
L 262.420685 189.845398 
L 260.253059 187.983984 
L 258.085432 186.122569 
L 255.917806 184.261155 
L 253.75018 182.399741 
L 253.75018 178.676913 
L 251.582554 176.815499 
L 249.414927 174.954085 
L 247.247301 173.09267 
L 245.079675 171.231256 
L 245.079675 167.508428 
L 242.912049 165.647014 
L 240.744422 163.7856 
L 238.576796 161.924186 
L 236.40917 160.062771 
L 234.241544 158.201357 
L 232.073917 156.339943 
L 232.073917 152.617115 
L 229.906291 150.755701 
L 227.738665 148.894287 
L 225.571039 147.032872 
L 223.403412 145.171458 
L 221.235786 143.310044 
L 219.06816 141.44863 
L 216.900533 139.587216 
L 214.732907 137.725802 
L 212.565281 135.864388 
L 210.397655 134.002973 
L 208.230028 132.141559 
L 206.062402 130.280145 
L 203.894776 128.418731 
L 201.72715 126.557317 
L 199.559523 124.695903 
L 197.391897 122.834489 
L 195.224271 120.973074 
L 190.889018 120.973074 
L 188.721392 119.11166 
L 186.553766 117.250246 
L 182.218513 117.250246 
L 180.050887 115.388832 
L 177.883261 113.527418 
L 173.548008 113.527418 
L 171.380382 111.666004 
L 169.212756 109.80459 
L 164.877503 109.80459 
L 160.542251 109.80459 
L 158.374624 111.666004 
L 156.206998 113.527418 
L 151.871746 113.527418 
L 147.536493 113.527418 
L 145.368867 115.388832 
L 143.201241 117.250246 
L 138.865988 117.250246 
L 136.698362 119.11166 
L 134.530735 120.973074 
L 132.363109 122.834489 
L 130.195483 124.695903 
L 125.86023 124.695903 
L 123.692604 126.557317 
L 121.524978 128.418731 
L 119.357352 130.280145 
L 117.189725 132.141559 
L 115.022099 134.002973 
L 112.854473 135.864388 
L 110.686847 137.725802 
L 108.51922 139.587216 
L 106.351594 141.44863 
L 104.183968 143.310044 
L 102.016342 145.171458 
L 99.848715 147.032872 
L 97.681089 148.894287 
L 95.513463 150.755701 
L 93.345836 152.617115 
L 93.345836 156.339943 
L 91.17821 158.201357 
L 89.010584 160.062771 
L 86.842958 161.924186 
L 84.675331 163.7856 
L 84.675331 167.508428 
L 82.507705 169.369842 
L 80.340079 171.231256 
L 78.172453 173.09267 
L 76.004826 174.954085 
L 73.8372 176.815499 
L 71.669574 178.676913 
L 71.669574 182.399741 
L 69.501948 184.261155 
L 67.334321 186.122569 
L 65.166695 187.983984 
L 62.999069 189.845398 
L 62.999069 193.568226 
L 60.831443 195.42964 
L 58.663816 197.291054 
L 58.663816 201.013883 
L 56.49619 202.875297 
L 54.328564 204.736711 
L 52.160938 206.598125 
L 52.160938 208.459539 
L 52.160938 212.182367 
L 52.160938 215.905196 
L 52.160938 219.628024 
L 52.160938 223.350852 
L 52.160938 227.073681 
L 52.160938 230.796509 
L 52.160938 234.519337 
L 52.160938 238.242165 
L 52.160938 241.964994 
L 52.160938 245.687822 
L 52.160938 249.41065 
L 52.160938 253.133479 
L 52.160938 256.856307 
L 52.160938 260.579135 
L 52.160938 264.301963 
L 52.160938 268.024792 
L 52.160938 271.74762 
L 52.160938 275.470448 
L 52.160938 279.193277 
L 52.160938 282.916105 
L 52.160938 286.638933 
L 52.160938 290.361761 
L 52.160938 294.08459 
L 52.160938 297.807418 
L 52.160938 301.530246 
L 52.160938 305.253074 
L 52.160938 308.975903 
L 52.160938 312.698731 
L 52.160938 316.421559 
L 52.160938 320.144388 
L 52.160938 323.867216 
L 52.160938 327.590044 
L 52.160938 331.312872 
L 52.160938 335.035701 
L 52.160938 338.758529 
L 52.160938 342.481357 
L 52.160938 346.204186 
L 52.160938 349.927014 
L 52.160938 353.649842 
L 52.160938 357.37267 
L 52.160938 361.095499 
L 52.160938 364.818327 
L 52.160938 368.541155 
L 52.160938 372.263984 
L 52.160938 375.986812 
L 52.160938 379.70964 
L 52.160938 383.432468 
L 52.160938 387.155297 
L 52.160938 390.878125 
z
" clip-path="url(#pc687cf4db0)" style="fill: #add8e6; fill-opacity: 0.8"/>
   </g>
   <g id="matplotlib.axis_1">
    <g id="xtick_1">
     <g id="line2d_1">
      <defs>
       <path id="mae55211ec6" d="M 0 0 
L 0 3.5 
" style="stroke: #000000; stroke-width: 0.8"/>
      </defs>
      <g>
       <use xlink:href="#mae55211ec6" x="52.160938" y="390.878125" style="stroke: #000000; stroke-width: 0.8"/>
      </g>
     </g>
     <g id="text_1">
      <!-- 0.0 -->
      <g transform="translate(44.209375 405.476562) scale(0.1 -0.1)">
       <defs>
        <path id="DejaVuSans-30" d="M 2034 4250 
Q 1547 4250 1301 3770 
Q 1056 3291 1056 2328 
Q 1056 1369 1301 889 
Q 1547 409 2034 409 
Q 2525 409 2770 889 
Q 3016 1369 3016 2328 
Q 3016 3291 2770 3770 
Q 2525 4250 2034 4250 
z
M 2034 4750 
Q 2819 4750 3233 4129 
Q 3647 3509 3647 2328 
Q 3647 1150 3233 529 
Q 2819 -91 2034 -91 
Q 1250 -91 836 529 
Q 422 1150 422 2328 
Q 422 3509 836 4129 
Q 1250 4750 2034 4750 
z
" transform="scale(0.015625)"/>
        <path id="DejaVuSans-2e" d="M 684 794 
L 1344 794 
L 1344 0 
L 684 0 
L 684 794 
z
" transform="scale(0.015625)"/>
       </defs>
       <use xlink:href="#DejaVuSans-30"/>
       <use xlink:href="#DejaVuSans-2e" transform="translate(63.623047 0)"/>
       <use xlink:href="#DejaVuSans-30" transform="translate(95.410156 0)"/>
      </g>
     </g>
    </g>
    <g id="xtick_2">
     <g id="line2d_2">
      <g>
       <use xlink:href="#mae55211ec6" x="137.998938" y="390.878125" style="stroke: #000000; stroke-width: 0.8"/>
      </g>
     </g>
     <g id="text_2">
      <!-- 0.2 -->
      <g transform="translate(130.047375 405.476562) scale(0.1 -0.1)">
       <defs>
        <path id="DejaVuSans-32" d="M 1228 531 
L 3431 531 
L 3431 0 
L 469 0 
L 469 531 
Q 828 903 1448 1529 
Q 2069 2156 2228 2338 
Q 2531 2678 2651 2914 
Q 2772 3150 2772 3378 
Q 2772 3750 2511 3984 
Q 2250 4219 1831 4219 
Q 1534 4219 1204 4116 
Q 875 4013 500 3803 
L 500 4441 
Q 881 4594 1212 4672 
Q 1544 4750 1819 4750 
Q 2544 4750 2975 4387 
Q 3406 4025 3406 3419 
Q 3406 3131 3298 2873 
Q 3191 2616 2906 2266 
Q 2828 2175 2409 1742 
Q 1991 1309 1228 531 
z
" transform="scale(0.015625)"/>
       </defs>
       <use xlink:href="#DejaVuSans-30"/>
       <use xlink:href="#DejaVuSans-2e" transform="translate(63.623047 0)"/>
       <use xlink:href="#DejaVuSans-32" transform="translate(95.410156 0)"/>
      </g>
     </g>
    </g>
    <g id="xtick_3">
     <g id="line2d_3">
      <g>
       <use xlink:href="#mae55211ec6" x="223.836938" y="390.878125" style="stroke: #000000; stroke-width: 0.8"/>
      </g>
     </g>
     <g id="text_3">
      <!-- 0.4 -->
      <g transform="translate(215.885375 405.476562) scale(0.1 -0.1)">
       <defs>
        <path id="DejaVuSans-34" d="M 2419 4116 
L 825 1625 
L 2419 1625 
L 2419 4116 
z
M 2253 4666 
L 3047 4666 
L 3047 1625 
L 3713 1625 
L 3713 1100 
L 3047 1100 
L 3047 0 
L 2419 0 
L 2419 1100 
L 313 1100 
L 313 1709 
L 2253 4666 
z
" transform="scale(0.015625)"/>
       </defs>
       <use xlink:href="#DejaVuSans-30"/>
       <use xlink:href="#DejaVuSans-2e" transform="translate(63.623047 0)"/>
       <use xlink:href="#DejaVuSans-34" transform="translate(95.410156 0)"/>
      </g>
     </g>
    </g>
    <g id="xtick_4">
     <g id="line2d_4">
      <g>
       <use xlink:href="#mae55211ec6" x="309.674937" y="390.878125" style="stroke: #000000; stroke-width: 0.8"/>
      </g>
     </g>
     <g id="text_4">
      <!-- 0.6 -->
      <g transform="translate(301.723375 405.476562) scale(0.1 -0.1)">
       <defs>
        <path id="DejaVuSans-36" d="M 2113 2584 
Q 1688 2584 1439 2293 
Q 1191 2003 1191 1497 
Q 1191 994 1439 701 
Q 1688 409 2113 409 
Q 2538 409 2786 701 
Q 3034 994 3034 1497 
Q 3034 2003 2786 2293 
Q 2538 2584 2113 2584 
z
M 3366 4563 
L 3366 3988 
Q 3128 4100 2886 4159 
Q 2644 4219 2406 4219 
Q 1781 4219 1451 3797 
Q 1122 3375 1075 2522 
Q 1259 2794 1537 2939 
Q 1816 3084 2150 3084 
Q 2853 3084 3261 2657 
Q 3669 2231 3669 1497 
Q 3669 778 3244 343 
Q 2819 -91 2113 -91 
Q 1303 -91 875 529 
Q 447 1150 447 2328 
Q 447 3434 972 4092 
Q 1497 4750 2381 4750 
Q 2619 4750 2861 4703 
Q 3103 4656 3366 4563 
z
" transform="scale(0.015625)"/>
       </defs>
       <use xlink:href="#DejaVuSans-30"/>
       <use xlink:href="#DejaVuSans-2e" transform="translate(63.623047 0)"/>
       <use xlink:href="#DejaVuSans-36" transform="translate(95.410156 0)"/>
      </g>
     </g>
    </g>
    <g id="xtick_5">
     <g id="line2d_5">
      <g>
       <use xlink:href="#mae55211ec6" x="395.512938" y="390.878125" style="stroke: #000000; stroke-width: 0.8"/>
      </g>
     </g>
     <g id="text_5">
      <!-- 0.8 -->
      <g transform="translate(387.561375 405.476562) scale(0.1 -0.1)">
       <defs>
        <path id="DejaVuSans-38" d="M 2034 2216 
Q 1584 2216 1326 1975 
Q 1069 1734 1069 1313 
Q 1069 891 1326 650 
Q 1584 409 2034 409 
Q 2484 409 2743 651 
Q 3003 894 3003 1313 
Q 3003 1734 2745 1975 
Q 2488 2216 2034 2216 
z
M 1403 2484 
Q 997 2584 770 2862 
Q 544 3141 544 3541 
Q 544 4100 942 4425 
Q 1341 4750 2034 4750 
Q 2731 4750 3128 4425 
Q 3525 4100 3525 3541 
Q 3525 3141 3298 2862 
Q 3072 2584 2669 2484 
Q 3125 2378 3379 2068 
Q 3634 1759 3634 1313 
Q 3634 634 3220 271 
Q 2806 -91 2034 -91 
Q 1263 -91 848 271 
Q 434 634 434 1313 
Q 434 1759 690 2068 
Q 947 2378 1403 2484 
z
M 1172 3481 
Q 1172 3119 1398 2916 
Q 1625 2713 2034 2713 
Q 2441 2713 2670 2916 
Q 2900 3119 2900 3481 
Q 2900 3844 2670 4047 
Q 2441 4250 2034 4250 
Q 1625 4250 1398 4047 
Q 1172 3844 1172 3481 
z
" transform="scale(0.015625)"/>
       </defs>
       <use xlink:href="#DejaVuSans-30"/>
       <use xlink:href="#DejaVuSans-2e" transform="translate(63.623047 0)"/>
       <use xlink:href="#DejaVuSans-38" transform="translate(95.410156 0)"/>
      </g>
     </g>
    </g>
    <g id="xtick_6">
     <g id="line2d_6">
      <g>
       <use xlink:href="#mae55211ec6" x="481.350937" y="390.878125" style="stroke: #000000; stroke-width: 0.8"/>
      </g>
     </g>
     <g id="text_6">
      <!-- 1.0 -->
      <g transform="translate(473.399375 405.476562) scale(0.1 -0.1)">
       <defs>
        <path id="DejaVuSans-31" d="M 794 531 
L 1825 531 
L 1825 4091 
L 703 3866 
L 703 4441 
L 1819 4666 
L 2450 4666 
L 2450 531 
L 3481 531 
L 3481 0 
L 794 0 
L 794 531 
z
" transform="scale(0.015625)"/>
       </defs>
       <use xlink:href="#DejaVuSans-31"/>
       <use xlink:href="#DejaVuSans-2e" transform="translate(63.623047 0)"/>
       <use xlink:href="#DejaVuSans-30" transform="translate(95.410156 0)"/>
      </g>
     </g>
    </g>
    <g id="text_7">
     <!-- x -->
     <g transform="translate(263.796562 419.154687) scale(0.1 -0.1)">
      <defs>
       <path id="DejaVuSans-78" d="M 3513 3500 
L 2247 1797 
L 3578 0 
L 2900 0 
L 1881 1375 
L 863 0 
L 184 0 
L 1544 1831 
L 300 3500 
L 978 3500 
L 1906 2253 
L 2834 3500 
L 3513 3500 
z
" transform="scale(0.015625)"/>
      </defs>
      <use xlink:href="#DejaVuSans-78"/>
     </g>
    </g>
   </g>
   <g id="matplotlib.axis_2">
    <g id="ytick_1">
     <g id="line2d_7">
      <defs>
       <path id="mb24d5b49b9" d="M 0 0 
L -3.5 0 
" style="stroke: #000000; stroke-width: 0.8"/>
      </defs>
      <g>
       <use xlink:href="#mb24d5b49b9" x="52.160938" y="390.878125" style="stroke: #000000; stroke-width: 0.8"/>
      </g>
     </g>
     <g id="text_8">
      <!-- −2.0 -->
      <g transform="translate(20.878125 394.677344) scale(0.1 -0.1)">
       <defs>
        <path id="DejaVuSans-2212" d="M 678 2272 
L 4684 2272 
L 4684 1741 
L 678 1741 
L 678 2272 
z
" transform="scale(0.015625)"/>
       </defs>
       <use xlink:href="#DejaVuSans-2212"/>
       <use xlink:href="#DejaVuSans-32" transform="translate(83.789062 0)"/>
       <use xlink:href="#DejaVuSans-2e" transform="translate(147.412109 0)"/>
       <use xlink:href="#DejaVuSans-30" transform="translate(179.199219 0)"/>
      </g>
     </g>
    </g>
    <g id="ytick_2">
     <g id="line2d_8">
      <g>
       <use xlink:href="#mb24d5b49b9" x="52.160938" y="344.808127" style="stroke: #000000; stroke-width: 0.8"/>
      </g>
     </g>
     <g id="text_9">
      <!-- −1.5 -->
      <g transform="translate(20.878125 348.607346) scale(0.1 -0.1)">
       <defs>
        <path id="DejaVuSans-35" d="M 691 4666 
L 3169 4666 
L 3169 4134 
L 1269 4134 
L 1269 2991 
Q 1406 3038 1543 3061 
Q 1681 3084 1819 3084 
Q 2600 3084 3056 2656 
Q 3513 2228 3513 1497 
Q 3513 744 3044 326 
Q 2575 -91 1722 -91 
Q 1428 -91 1123 -41 
Q 819 9 494 109 
L 494 744 
Q 775 591 1075 516 
Q 1375 441 1709 441 
Q 2250 441 2565 725 
Q 2881 1009 2881 1497 
Q 2881 1984 2565 2268 
Q 2250 2553 1709 2553 
Q 1456 2553 1204 2497 
Q 953 2441 691 2322 
L 691 4666 
z
" transform="scale(0.015625)"/>
       </defs>
       <use xlink:href="#DejaVuSans-2212"/>
       <use xlink:href="#DejaVuSans-31" transform="translate(83.789062 0)"/>
       <use xlink:href="#DejaVuSans-2e" transform="translate(147.412109 0)"/>
       <use xlink:href="#DejaVuSans-35" transform="translate(179.199219 0)"/>
      </g>
     </g>
    </g>
    <g id="ytick_3">
     <g id="line2d_9">
      <g>
       <use xlink:href="#mb24d5b49b9" x="52.160938" y="298.738129" style="stroke: #000000; stroke-width: 0.8"/>
      </g>
     </g>
     <g id="text_10">
      <!-- −1.0 -->
      <g transform="translate(20.878125 302.537348) scale(0.1 -0.1)">
       <use xlink:href="#DejaVuSans-2212"/>
       <use xlink:href="#DejaVuSans-31" transform="translate(83.789062 0)"/>
       <use xlink:href="#DejaVuSans-2e" transform="translate(147.412109 0)"/>
       <use xlink:href="#DejaVuSans-30" transform="translate(179.199219 0)"/>
      </g>
     </g>
    </g>
    <g id="ytick_4">
     <g id="line2d_10">
      <g>
       <use xlink:href="#mb24d5b49b9" x="52.160938" y="252.668131" style="stroke: #000000; stroke-width: 0.8"/>
      </g>
     </g>
     <g id="text_11">
      <!-- −0.5 -->
      <g transform="translate(20.878125 256.46735) scale(0.1 -0.1)">
       <use xlink:href="#DejaVuSans-2212"/>
       <use xlink:href="#DejaVuSans-30" transform="translate(83.789062 0)"/>
       <use xlink:href="#DejaVuSans-2e" transform="translate(147.412109 0)"/>
       <use xlink:href="#DejaVuSans-35" transform="translate(179.199219 0)"/>
      </g>
     </g>
    </g>
    <g id="ytick_5">
     <g id="line2d_11">
      <g>
       <use xlink:href="#mb24d5b49b9" x="52.160938" y="206.598133" style="stroke: #000000; stroke-width: 0.8"/>
      </g>
     </g>
     <g id="text_12">
      <!-- 0.0 -->
      <g transform="translate(29.257812 210.397352) scale(0.1 -0.1)">
       <use xlink:href="#DejaVuSans-30"/>
       <use xlink:href="#DejaVuSans-2e" transform="translate(63.623047 0)"/>
       <use xlink:href="#DejaVuSans-30" transform="translate(95.410156 0)"/>
      </g>
     </g>
    </g>
    <g id="ytick_6">
     <g id="line2d_12">
      <g>
       <use xlink:href="#mb24d5b49b9" x="52.160938" y="160.528135" style="stroke: #000000; stroke-width: 0.8"/>
      </g>
     </g>
     <g id="text_13">
      <!-- 0.5 -->
      <g transform="translate(29.257812 164.327354) scale(0.1 -0.1)">
       <use xlink:href="#DejaVuSans-30"/>
       <use xlink:href="#DejaVuSans-2e" transform="translate(63.623047 0)"/>
       <use xlink:href="#DejaVuSans-35" transform="translate(95.410156 0)"/>
      </g>
     </g>
    </g>
    <g id="ytick_7">
     <g id="line2d_13">
      <g>
       <use xlink:href="#mb24d5b49b9" x="52.160938" y="114.458137" style="stroke: #000000; stroke-width: 0.8"/>
      </g>
     </g>
     <g id="text_14">
      <!-- 1.0 -->
      <g transform="translate(29.257812 118.257356) scale(0.1 -0.1)">
       <use xlink:href="#DejaVuSans-31"/>
       <use xlink:href="#DejaVuSans-2e" transform="translate(63.623047 0)"/>
       <use xlink:href="#DejaVuSans-30" transform="translate(95.410156 0)"/>
      </g>
     </g>
    </g>
    <g id="ytick_8">
     <g id="line2d_14">
      <g>
       <use xlink:href="#mb24d5b49b9" x="52.160938" y="68.388139" style="stroke: #000000; stroke-width: 0.8"/>
      </g>
     </g>
     <g id="text_15">
      <!-- 1.5 -->
      <g transform="translate(29.257812 72.187358) scale(0.1 -0.1)">
       <use xlink:href="#DejaVuSans-31"/>
       <use xlink:href="#DejaVuSans-2e" transform="translate(63.623047 0)"/>
       <use xlink:href="#DejaVuSans-35" transform="translate(95.410156 0)"/>
      </g>
     </g>
    </g>
    <g id="ytick_9">
     <g id="line2d_15">
      <g>
       <use xlink:href="#mb24d5b49b9" x="52.160938" y="22.318141" style="stroke: #000000; stroke-width: 0.8"/>
      </g>
     </g>
     <g id="text_16">
      <!-- 2.0 -->
      <g transform="translate(29.257812 26.11736) scale(0.1 -0.1)">
       <use xlink:href="#DejaVuSans-32"/>
       <use xlink:href="#DejaVuSans-2e" transform="translate(63.623047 0)"/>
       <use xlink:href="#DejaVuSans-30" transform="translate(95.410156 0)"/>
      </g>
     </g>
    </g>
    <g id="text_17">
     <!-- y -->
     <g transform="translate(14.798438 209.5575) rotate(-90) scale(0.1 -0.1)">
      <defs>
       <path id="DejaVuSans-79" d="M 2059 -325 
Q 1816 -950 1584 -1140 
Q 1353 -1331 966 -1331 
L 506 -1331 
L 506 -850 
L 844 -850 
Q 1081 -850 1212 -737 
Q 1344 -625 1503 -206 
L 1606 56 
L 191 3500 
L 800 3500 
L 1894 763 
L 2988 3500 
L 3597 3500 
L 2059 -325 
z
" transform="scale(0.015625)"/>
      </defs>
      <use xlink:href="#DejaVuSans-79"/>
     </g>
    </g>
   </g>
   <g id="QuadContourSet_2">
    <path d="M 481.350937 210.320953 
L 479.183311 212.182367 
L 479.183311 219.628024 
L 474.848059 223.350852 
L 474.848059 227.073681 
L 470.512806 230.796509 
L 470.512806 238.242165 
L 466.177554 241.964994 
L 466.177554 245.687822 
L 461.842301 249.41065 
L 461.842301 253.133479 
L 457.507049 256.856307 
L 457.507049 260.579135 
L 453.171796 264.301963 
L 453.171796 268.024792 
L 448.836544 271.74762 
L 448.836544 275.470448 
L 420.657402 299.668832 
L 416.32215 299.668832 
L 411.986897 303.39166 
L 398.98114 303.39166 
L 394.645887 307.114489 
L 390.310634 307.114489 
L 385.975382 303.39166 
L 377.304877 303.39166 
L 372.969624 299.668832 
L 368.634372 299.668832 
L 364.299119 295.946004 
L 359.963867 295.946004 
L 351.293362 288.500347 
L 346.958109 288.500347 
L 336.119978 279.193277 
L 336.119978 275.470448 
L 305.77321 249.41065 
L 305.77321 245.687822 
L 297.102705 238.242165 
L 297.102705 234.519337 
L 284.096948 223.350852 
L 284.096948 219.628024 
L 275.426443 212.182367 
L 275.426443 208.459539 
L 266.755938 201.013883 
L 266.755938 197.291054 
L 262.420685 193.568226 
L 262.420685 189.845398 
L 253.75018 182.399741 
L 253.75018 178.676913 
L 245.079675 171.231256 
L 245.079675 167.508428 
L 232.073917 156.339943 
L 232.073917 152.617115 
L 195.224271 120.973074 
L 190.889018 120.973074 
L 186.553766 117.250246 
L 182.218513 117.250246 
L 177.883261 113.527418 
L 173.548008 113.527418 
L 169.212756 109.80459 
L 160.542251 109.80459 
L 156.206998 113.527418 
L 147.536493 113.527418 
L 143.201241 117.250246 
L 138.865988 117.250246 
L 130.195483 124.695903 
L 125.86023 124.695903 
L 93.345836 152.617115 
L 93.345836 156.339943 
L 84.675331 163.7856 
L 84.675331 167.508428 
L 71.669574 178.676913 
L 71.669574 182.399741 
L 62.999069 189.845398 
L 62.999069 193.568226 
L 58.663816 197.291054 
L 58.663816 201.013883 
L 52.160938 206.598125 
L 52.160938 206.598125 
" clip-path="url(#pc687cf4db0)" style="fill: none; stroke: #000000; stroke-width: 2"/>
   </g>
   <g id="line2d_16">
    <path d="M 52.160938 206.598133 
L 67.258073 186.399058 
L 75.885008 175.236322 
L 82.355209 167.182664 
L 88.82541 159.482381 
L 95.295611 152.204514 
L 99.609078 147.619667 
L 103.922546 143.269932 
L 108.236013 139.172641 
L 112.54948 135.344122 
L 116.862948 131.799647 
L 121.176415 128.553343 
L 125.489882 125.618142 
L 129.80335 123.00576 
L 134.116817 120.726597 
L 138.430284 118.789738 
L 142.743752 117.202915 
L 147.057219 115.972444 
L 151.370686 115.103235 
L 155.684154 114.598754 
L 159.997621 114.461009 
L 164.311088 114.690546 
L 168.624556 115.286458 
L 172.938023 116.246362 
L 177.25149 117.566434 
L 181.564958 119.241414 
L 185.878425 121.264623 
L 190.191892 123.627994 
L 194.50536 126.322114 
L 198.818827 129.33624 
L 203.132294 132.65835 
L 207.445762 136.275203 
L 211.759229 140.172384 
L 216.072696 144.334353 
L 220.386164 148.744544 
L 224.699631 153.385343 
L 231.169832 160.738247 
L 237.640033 168.502308 
L 244.110234 176.607934 
L 252.737169 187.820737 
L 265.677571 205.143598 
L 280.774706 225.375524 
L 289.401641 236.588349 
L 295.871842 244.693953 
L 302.342043 252.458014 
L 308.812244 259.81094 
L 313.125711 264.451733 
L 317.439179 268.861907 
L 321.752646 273.023877 
L 326.066113 276.921063 
L 330.379581 280.537916 
L 334.693048 283.860021 
L 339.006515 286.874141 
L 343.319983 289.568277 
L 347.63345 291.931648 
L 351.946917 293.954852 
L 356.260385 295.629832 
L 360.573852 296.949905 
L 364.887319 297.909808 
L 369.200787 298.50572 
L 373.514254 298.735257 
L 377.827721 298.597513 
L 382.141189 298.093031 
L 386.454656 297.223817 
L 390.768123 295.993346 
L 395.081591 294.406523 
L 399.395058 292.469669 
L 403.708525 290.190507 
L 408.021993 287.578124 
L 412.33546 284.642929 
L 416.648927 281.396624 
L 420.962395 277.85215 
L 425.275862 274.023636 
L 429.589329 269.92635 
L 433.902797 265.576582 
L 438.216264 260.991741 
L 444.686465 253.713879 
L 451.156666 246.0136 
L 457.626867 237.959947 
L 466.253802 226.797221 
L 477.03747 212.412665 
L 481.350937 206.598117 
L 481.350937 206.598117 
" clip-path="url(#pc687cf4db0)" style="fill: none; stroke-dasharray: 11.1,4.8; stroke-dashoffset: 0; stroke: #000000; stroke-width: 3"/>
   </g>
   <g id="patch_3">
    <path d="M 52.160938 390.878125 
L 52.160938 22.318125 
" style="fill: none; stroke: #000000; stroke-width: 0.8; stroke-linejoin: miter; stroke-linecap: square"/>
   </g>
   <g id="patch_4">
    <path d="M 481.350937 390.878125 
L 481.350937 22.318125 
" style="fill: none; stroke: #000000; stroke-width: 0.8; stroke-linejoin: miter; stroke-linecap: square"/>
   </g>
   <g id="patch_5">
    <path d="M 52.160938 390.878125 
L 481.350937 390.878125 
" style="fill: none; stroke: #000000; stroke-width: 0.8; stroke-linejoin: miter; stroke-linecap: square"/>
   </g>
   <g id="patch_6">
    <path d="M 52.160938 22.318125 
L 481.350937 22.318125 
" style="fill: none; stroke: #000000; stroke-width: 0.8; stroke-linejoin: miter; stroke-linecap: square"/>
   </g>
   <g id="text_18">
    <!-- NN Argmax Classification -->
    <g transform="translate(190.917813 16.318125) scale(0.12 -0.12)">
     <defs>
      <path id="DejaVuSans-4e" d="M 628 4666 
L 1478 4666 
L 3547 763 
L 3547 4666 
L 4159 4666 
L 4159 0 
L 3309 0 
L 1241 3903 
L 1241 0 
L 628 0 
L 628 4666 
z
" transform="scale(0.015625)"/>
      <path id="DejaVuSans-20" transform="scale(0.015625)"/>
      <path id="DejaVuSans-41" d="M 2188 4044 
L 1331 1722 
L 3047 1722 
L 2188 4044 
z
M 1831 4666 
L 2547 4666 
L 4325 0 
L 3669 0 
L 3244 1197 
L 1141 1197 
L 716 0 
L 50 0 
L 1831 4666 
z
" transform="scale(0.015625)"/>
      <path id="DejaVuSans-72" d="M 2631 2963 
Q 2534 3019 2420 3045 
Q 2306 3072 2169 3072 
Q 1681 3072 1420 2755 
Q 1159 2438 1159 1844 
L 1159 0 
L 581 0 
L 581 3500 
L 1159 3500 
L 1159 2956 
Q 1341 3275 1631 3429 
Q 1922 3584 2338 3584 
Q 2397 3584 2469 3576 
Q 2541 3569 2628 3553 
L 2631 2963 
z
" transform="scale(0.015625)"/>
      <path id="DejaVuSans-67" d="M 2906 1791 
Q 2906 2416 2648 2759 
Q 2391 3103 1925 3103 
Q 1463 3103 1205 2759 
Q 947 2416 947 1791 
Q 947 1169 1205 825 
Q 1463 481 1925 481 
Q 2391 481 2648 825 
Q 2906 1169 2906 1791 
z
M 3481 434 
Q 3481 -459 3084 -895 
Q 2688 -1331 1869 -1331 
Q 1566 -1331 1297 -1286 
Q 1028 -1241 775 -1147 
L 775 -588 
Q 1028 -725 1275 -790 
Q 1522 -856 1778 -856 
Q 2344 -856 2625 -561 
Q 2906 -266 2906 331 
L 2906 616 
Q 2728 306 2450 153 
Q 2172 0 1784 0 
Q 1141 0 747 490 
Q 353 981 353 1791 
Q 353 2603 747 3093 
Q 1141 3584 1784 3584 
Q 2172 3584 2450 3431 
Q 2728 3278 2906 2969 
L 2906 3500 
L 3481 3500 
L 3481 434 
z
" transform="scale(0.015625)"/>
      <path id="DejaVuSans-6d" d="M 3328 2828 
Q 3544 3216 3844 3400 
Q 4144 3584 4550 3584 
Q 5097 3584 5394 3201 
Q 5691 2819 5691 2113 
L 5691 0 
L 5113 0 
L 5113 2094 
Q 5113 2597 4934 2840 
Q 4756 3084 4391 3084 
Q 3944 3084 3684 2787 
Q 3425 2491 3425 1978 
L 3425 0 
L 2847 0 
L 2847 2094 
Q 2847 2600 2669 2842 
Q 2491 3084 2119 3084 
Q 1678 3084 1418 2786 
Q 1159 2488 1159 1978 
L 1159 0 
L 581 0 
L 581 3500 
L 1159 3500 
L 1159 2956 
Q 1356 3278 1631 3431 
Q 1906 3584 2284 3584 
Q 2666 3584 2933 3390 
Q 3200 3197 3328 2828 
z
" transform="scale(0.015625)"/>
      <path id="DejaVuSans-61" d="M 2194 1759 
Q 1497 1759 1228 1600 
Q 959 1441 959 1056 
Q 959 750 1161 570 
Q 1363 391 1709 391 
Q 2188 391 2477 730 
Q 2766 1069 2766 1631 
L 2766 1759 
L 2194 1759 
z
M 3341 1997 
L 3341 0 
L 2766 0 
L 2766 531 
Q 2569 213 2275 61 
Q 1981 -91 1556 -91 
Q 1019 -91 701 211 
Q 384 513 384 1019 
Q 384 1609 779 1909 
Q 1175 2209 1959 2209 
L 2766 2209 
L 2766 2266 
Q 2766 2663 2505 2880 
Q 2244 3097 1772 3097 
Q 1472 3097 1187 3025 
Q 903 2953 641 2809 
L 641 3341 
Q 956 3463 1253 3523 
Q 1550 3584 1831 3584 
Q 2591 3584 2966 3190 
Q 3341 2797 3341 1997 
z
" transform="scale(0.015625)"/>
      <path id="DejaVuSans-43" d="M 4122 4306 
L 4122 3641 
Q 3803 3938 3442 4084 
Q 3081 4231 2675 4231 
Q 1875 4231 1450 3742 
Q 1025 3253 1025 2328 
Q 1025 1406 1450 917 
Q 1875 428 2675 428 
Q 3081 428 3442 575 
Q 3803 722 4122 1019 
L 4122 359 
Q 3791 134 3420 21 
Q 3050 -91 2638 -91 
Q 1578 -91 968 557 
Q 359 1206 359 2328 
Q 359 3453 968 4101 
Q 1578 4750 2638 4750 
Q 3056 4750 3426 4639 
Q 3797 4528 4122 4306 
z
" transform="scale(0.015625)"/>
      <path id="DejaVuSans-6c" d="M 603 4863 
L 1178 4863 
L 1178 0 
L 603 0 
L 603 4863 
z
" transform="scale(0.015625)"/>
      <path id="DejaVuSans-73" d="M 2834 3397 
L 2834 2853 
Q 2591 2978 2328 3040 
Q 2066 3103 1784 3103 
Q 1356 3103 1142 2972 
Q 928 2841 928 2578 
Q 928 2378 1081 2264 
Q 1234 2150 1697 2047 
L 1894 2003 
Q 2506 1872 2764 1633 
Q 3022 1394 3022 966 
Q 3022 478 2636 193 
Q 2250 -91 1575 -91 
Q 1294 -91 989 -36 
Q 684 19 347 128 
L 347 722 
Q 666 556 975 473 
Q 1284 391 1588 391 
Q 1994 391 2212 530 
Q 2431 669 2431 922 
Q 2431 1156 2273 1281 
Q 2116 1406 1581 1522 
L 1381 1569 
Q 847 1681 609 1914 
Q 372 2147 372 2553 
Q 372 3047 722 3315 
Q 1072 3584 1716 3584 
Q 2034 3584 2315 3537 
Q 2597 3491 2834 3397 
z
" transform="scale(0.015625)"/>
      <path id="DejaVuSans-69" d="M 603 3500 
L 1178 3500 
L 1178 0 
L 603 0 
L 603 3500 
z
M 603 4863 
L 1178 4863 
L 1178 4134 
L 603 4134 
L 603 4863 
z
" transform="scale(0.015625)"/>
      <path id="DejaVuSans-66" d="M 2375 4863 
L 2375 4384 
L 1825 4384 
Q 1516 4384 1395 4259 
Q 1275 4134 1275 3809 
L 1275 3500 
L 2222 3500 
L 2222 3053 
L 1275 3053 
L 1275 0 
L 697 0 
L 697 3053 
L 147 3053 
L 147 3500 
L 697 3500 
L 697 3744 
Q 697 4328 969 4595 
Q 1241 4863 1831 4863 
L 2375 4863 
z
" transform="scale(0.015625)"/>
      <path id="DejaVuSans-63" d="M 3122 3366 
L 3122 2828 
Q 2878 2963 2633 3030 
Q 2388 3097 2138 3097 
Q 1578 3097 1268 2742 
Q 959 2388 959 1747 
Q 959 1106 1268 751 
Q 1578 397 2138 397 
Q 2388 397 2633 464 
Q 2878 531 3122 666 
L 3122 134 
Q 2881 22 2623 -34 
Q 2366 -91 2075 -91 
Q 1284 -91 818 406 
Q 353 903 353 1747 
Q 353 2603 823 3093 
Q 1294 3584 2113 3584 
Q 2378 3584 2631 3529 
Q 2884 3475 3122 3366 
z
" transform="scale(0.015625)"/>
      <path id="DejaVuSans-74" d="M 1172 4494 
L 1172 3500 
L 2356 3500 
L 2356 3053 
L 1172 3053 
L 1172 1153 
Q 1172 725 1289 603 
Q 1406 481 1766 481 
L 2356 481 
L 2356 0 
L 1766 0 
Q 1100 0 847 248 
Q 594 497 594 1153 
L 594 3053 
L 172 3053 
L 172 3500 
L 594 3500 
L 594 4494 
L 1172 4494 
z
" transform="scale(0.015625)"/>
      <path id="DejaVuSans-6f" d="M 1959 3097 
Q 1497 3097 1228 2736 
Q 959 2375 959 1747 
Q 959 1119 1226 758 
Q 1494 397 1959 397 
Q 2419 397 2687 759 
Q 2956 1122 2956 1747 
Q 2956 2369 2687 2733 
Q 2419 3097 1959 3097 
z
M 1959 3584 
Q 2709 3584 3137 3096 
Q 3566 2609 3566 1747 
Q 3566 888 3137 398 
Q 2709 -91 1959 -91 
Q 1206 -91 779 398 
Q 353 888 353 1747 
Q 353 2609 779 3096 
Q 1206 3584 1959 3584 
z
" transform="scale(0.015625)"/>
      <path id="DejaVuSans-6e" d="M 3513 2113 
L 3513 0 
L 2938 0 
L 2938 2094 
Q 2938 2591 2744 2837 
Q 2550 3084 2163 3084 
Q 1697 3084 1428 2787 
Q 1159 2491 1159 1978 
L 1159 0 
L 581 0 
L 581 3500 
L 1159 3500 
L 1159 2956 
Q 1366 3272 1645 3428 
Q 1925 3584 2291 3584 
Q 2894 3584 3203 3211 
Q 3513 2838 3513 2113 
z
" transform="scale(0.015625)"/>
     </defs>
     <use xlink:href="#DejaVuSans-4e"/>
     <use xlink:href="#DejaVuSans-4e" transform="translate(74.804688 0)"/>
     <use xlink:href="#DejaVuSans-20" transform="translate(149.609375 0)"/>
     <use xlink:href="#DejaVuSans-41" transform="translate(181.396484 0)"/>
     <use xlink:href="#DejaVuSans-72" transform="translate(249.804688 0)"/>
     <use xlink:href="#DejaVuSans-67" transform="translate(289.167969 0)"/>
     <use xlink:href="#DejaVuSans-6d" transform="translate(352.644531 0)"/>
     <use xlink:href="#DejaVuSans-61" transform="translate(450.056641 0)"/>
     <use xlink:href="#DejaVuSans-78" transform="translate(511.335938 0)"/>
     <use xlink:href="#DejaVuSans-20" transform="translate(570.515625 0)"/>
     <use xlink:href="#DejaVuSans-43" transform="translate(602.302734 0)"/>
     <use xlink:href="#DejaVuSans-6c" transform="translate(672.126953 0)"/>
     <use xlink:href="#DejaVuSans-61" transform="translate(699.910156 0)"/>
     <use xlink:href="#DejaVuSans-73" transform="translate(761.189453 0)"/>
     <use xlink:href="#DejaVuSans-73" transform="translate(813.289062 0)"/>
     <use xlink:href="#DejaVuSans-69" transform="translate(865.388672 0)"/>
     <use xlink:href="#DejaVuSans-66" transform="translate(893.171875 0)"/>
     <use xlink:href="#DejaVuSans-69" transform="translate(928.376953 0)"/>
     <use xlink:href="#DejaVuSans-63" transform="translate(956.160156 0)"/>
     <use xlink:href="#DejaVuSans-61" transform="translate(1011.140625 0)"/>
     <use xlink:href="#DejaVuSans-74" transform="translate(1072.419922 0)"/>
     <use xlink:href="#DejaVuSans-69" transform="translate(1111.628906 0)"/>
     <use xlink:href="#DejaVuSans-6f" transform="translate(1139.412109 0)"/>
     <use xlink:href="#DejaVuSans-6e" transform="translate(1200.59375 0)"/>
    </g>
   </g>
   <g id="legend_1">
    <g id="patch_7">
     <path d="M 388.435312 103.70875 
L 474.350937 103.70875 
Q 476.350937 103.70875 476.350937 101.70875 
L 476.350937 29.318125 
Q 476.350937 27.318125 474.350937 27.318125 
L 388.435312 27.318125 
Q 386.435312 27.318125 386.435312 29.318125 
L 386.435312 101.70875 
Q 386.435312 103.70875 388.435312 103.70875 
z
" style="fill: #ffffff; opacity: 0.8; stroke: #cccccc; stroke-linejoin: miter"/>
    </g>
    <g id="line2d_17">
     <path d="M 390.435312 35.416562 
L 400.435312 35.416562 
L 410.435312 35.416562 
" style="fill: none; stroke-dasharray: 11.1,4.8; stroke-dashoffset: 0; stroke: #000000; stroke-width: 3"/>
    </g>
    <g id="text_19">
     <!-- True Curve -->
     <g transform="translate(418.435312 38.916562) scale(0.1 -0.1)">
      <defs>
       <path id="DejaVuSans-54" d="M -19 4666 
L 3928 4666 
L 3928 4134 
L 2272 4134 
L 2272 0 
L 1638 0 
L 1638 4134 
L -19 4134 
L -19 4666 
z
" transform="scale(0.015625)"/>
       <path id="DejaVuSans-75" d="M 544 1381 
L 544 3500 
L 1119 3500 
L 1119 1403 
Q 1119 906 1312 657 
Q 1506 409 1894 409 
Q 2359 409 2629 706 
Q 2900 1003 2900 1516 
L 2900 3500 
L 3475 3500 
L 3475 0 
L 2900 0 
L 2900 538 
Q 2691 219 2414 64 
Q 2138 -91 1772 -91 
Q 1169 -91 856 284 
Q 544 659 544 1381 
z
M 1991 3584 
L 1991 3584 
z
" transform="scale(0.015625)"/>
       <path id="DejaVuSans-65" d="M 3597 1894 
L 3597 1613 
L 953 1613 
Q 991 1019 1311 708 
Q 1631 397 2203 397 
Q 2534 397 2845 478 
Q 3156 559 3463 722 
L 3463 178 
Q 3153 47 2828 -22 
Q 2503 -91 2169 -91 
Q 1331 -91 842 396 
Q 353 884 353 1716 
Q 353 2575 817 3079 
Q 1281 3584 2069 3584 
Q 2775 3584 3186 3129 
Q 3597 2675 3597 1894 
z
M 3022 2063 
Q 3016 2534 2758 2815 
Q 2500 3097 2075 3097 
Q 1594 3097 1305 2825 
Q 1016 2553 972 2059 
L 3022 2063 
z
" transform="scale(0.015625)"/>
       <path id="DejaVuSans-76" d="M 191 3500 
L 800 3500 
L 1894 563 
L 2988 3500 
L 3597 3500 
L 2284 0 
L 1503 0 
L 191 3500 
z
" transform="scale(0.015625)"/>
      </defs>
      <use xlink:href="#DejaVuSans-54"/>
      <use xlink:href="#DejaVuSans-72" transform="translate(46.333984 0)"/>
      <use xlink:href="#DejaVuSans-75" transform="translate(87.447266 0)"/>
      <use xlink:href="#DejaVuSans-65" transform="translate(150.826172 0)"/>
      <use xlink:href="#DejaVuSans-20" transform="translate(212.349609 0)"/>
      <use xlink:href="#DejaVuSans-43" transform="translate(244.136719 0)"/>
      <use xlink:href="#DejaVuSans-75" transform="translate(313.960938 0)"/>
      <use xlink:href="#DejaVuSans-72" transform="translate(377.339844 0)"/>
      <use xlink:href="#DejaVuSans-76" transform="translate(418.453125 0)"/>
      <use xlink:href="#DejaVuSans-65" transform="translate(477.632812 0)"/>
     </g>
    </g>
    <g id="PathCollection_1">
     <defs>
      <path id="m43b9528203" d="M 0 5 
C 1.326016 5 2.597899 4.473168 3.535534 3.535534 
C 4.473168 2.597899 5 1.326016 5 0 
C 5 -1.326016 4.473168 -2.597899 3.535534 -3.535534 
C 2.597899 -4.473168 1.326016 -5 0 -5 
C -1.326016 -5 -2.597899 -4.473168 -3.535534 -3.535534 
C -4.473168 -2.597899 -5 -1.326016 -5 0 
C -5 1.326016 -4.473168 2.597899 -3.535534 3.535534 
C -2.597899 4.473168 -1.326016 5 0 5 
z
" style="stroke: #008000"/>
     </defs>
     <g>
      <use xlink:href="#m43b9528203" x="400.435312" y="50.969687" style="fill: #008000; stroke: #008000"/>
     </g>
    </g>
    <g id="text_20">
     <!-- Start -->
     <g transform="translate(418.435312 53.594687) scale(0.1 -0.1)">
      <defs>
       <path id="DejaVuSans-53" d="M 3425 4513 
L 3425 3897 
Q 3066 4069 2747 4153 
Q 2428 4238 2131 4238 
Q 1616 4238 1336 4038 
Q 1056 3838 1056 3469 
Q 1056 3159 1242 3001 
Q 1428 2844 1947 2747 
L 2328 2669 
Q 3034 2534 3370 2195 
Q 3706 1856 3706 1288 
Q 3706 609 3251 259 
Q 2797 -91 1919 -91 
Q 1588 -91 1214 -16 
Q 841 59 441 206 
L 441 856 
Q 825 641 1194 531 
Q 1563 422 1919 422 
Q 2459 422 2753 634 
Q 3047 847 3047 1241 
Q 3047 1584 2836 1778 
Q 2625 1972 2144 2069 
L 1759 2144 
Q 1053 2284 737 2584 
Q 422 2884 422 3419 
Q 422 4038 858 4394 
Q 1294 4750 2059 4750 
Q 2388 4750 2728 4690 
Q 3069 4631 3425 4513 
z
" transform="scale(0.015625)"/>
      </defs>
      <use xlink:href="#DejaVuSans-53"/>
      <use xlink:href="#DejaVuSans-74" transform="translate(63.476562 0)"/>
      <use xlink:href="#DejaVuSans-61" transform="translate(102.685547 0)"/>
      <use xlink:href="#DejaVuSans-72" transform="translate(163.964844 0)"/>
      <use xlink:href="#DejaVuSans-74" transform="translate(205.078125 0)"/>
     </g>
    </g>
    <g id="PathCollection_2">
     <defs>
      <path id="m508718cd73" d="M 0 5 
C 1.326016 5 2.597899 4.473168 3.535534 3.535534 
C 4.473168 2.597899 5 1.326016 5 0 
C 5 -1.326016 4.473168 -2.597899 3.535534 -3.535534 
C 2.597899 -4.473168 1.326016 -5 0 -5 
C -1.326016 -5 -2.597899 -4.473168 -3.535534 -3.535534 
C -4.473168 -2.597899 -5 -1.326016 -5 0 
C -5 1.326016 -4.473168 2.597899 -3.535534 3.535534 
C -2.597899 4.473168 -1.326016 5 0 5 
z
" style="stroke: #ff0000"/>
     </defs>
     <g>
      <use xlink:href="#m508718cd73" x="400.435312" y="65.647812" style="fill: #ff0000; stroke: #ff0000"/>
     </g>
    </g>
    <g id="text_21">
     <!-- End -->
     <g transform="translate(418.435312 68.272812) scale(0.1 -0.1)">
      <defs>
       <path id="DejaVuSans-45" d="M 628 4666 
L 3578 4666 
L 3578 4134 
L 1259 4134 
L 1259 2753 
L 3481 2753 
L 3481 2222 
L 1259 2222 
L 1259 531 
L 3634 531 
L 3634 0 
L 628 0 
L 628 4666 
z
" transform="scale(0.015625)"/>
       <path id="DejaVuSans-64" d="M 2906 2969 
L 2906 4863 
L 3481 4863 
L 3481 0 
L 2906 0 
L 2906 525 
Q 2725 213 2448 61 
Q 2172 -91 1784 -91 
Q 1150 -91 751 415 
Q 353 922 353 1747 
Q 353 2572 751 3078 
Q 1150 3584 1784 3584 
Q 2172 3584 2448 3432 
Q 2725 3281 2906 2969 
z
M 947 1747 
Q 947 1113 1208 752 
Q 1469 391 1925 391 
Q 2381 391 2643 752 
Q 2906 1113 2906 1747 
Q 2906 2381 2643 2742 
Q 2381 3103 1925 3103 
Q 1469 3103 1208 2742 
Q 947 2381 947 1747 
z
" transform="scale(0.015625)"/>
      </defs>
      <use xlink:href="#DejaVuSans-45"/>
      <use xlink:href="#DejaVuSans-6e" transform="translate(63.183594 0)"/>
      <use xlink:href="#DejaVuSans-64" transform="translate(126.5625 0)"/>
     </g>
    </g>
    <g id="patch_8">
     <path d="M 390.435312 82.950937 
L 410.435312 82.950937 
L 410.435312 75.950937 
L 390.435312 75.950937 
z
" style="fill: #f08080"/>
    </g>
    <g id="text_22">
     <!-- Class 0 -->
     <g transform="translate(418.435312 82.950937) scale(0.1 -0.1)">
      <use xlink:href="#DejaVuSans-43"/>
      <use xlink:href="#DejaVuSans-6c" transform="translate(69.824219 0)"/>
      <use xlink:href="#DejaVuSans-61" transform="translate(97.607422 0)"/>
      <use xlink:href="#DejaVuSans-73" transform="translate(158.886719 0)"/>
      <use xlink:href="#DejaVuSans-73" transform="translate(210.986328 0)"/>
      <use xlink:href="#DejaVuSans-20" transform="translate(263.085938 0)"/>
      <use xlink:href="#DejaVuSans-30" transform="translate(294.873047 0)"/>
     </g>
    </g>
    <g id="patch_9">
     <path d="M 390.435312 97.629062 
L 410.435312 97.629062 
L 410.435312 90.629062 
L 390.435312 90.629062 
z
" style="fill: #add8e6"/>
    </g>
    <g id="text_23">
     <!-- Class 1 -->
     <g transform="translate(418.435312 97.629062) scale(0.1 -0.1)">
      <use xlink:href="#DejaVuSans-43"/>
      <use xlink:href="#DejaVuSans-6c" transform="translate(69.824219 0)"/>
      <use xlink:href="#DejaVuSans-61" transform="translate(97.607422 0)"/>
      <use xlink:href="#DejaVuSans-73" transform="translate(158.886719 0)"/>
      <use xlink:href="#DejaVuSans-73" transform="translate(210.986328 0)"/>
      <use xlink:href="#DejaVuSans-20" transform="translate(263.085938 0)"/>
      <use xlink:href="#DejaVuSans-31" transform="translate(294.873047 0)"/>
     </g>
    </g>
   </g>
   <g id="PathCollection_3">
    <g clip-path="url(#pc687cf4db0)">
     <use xlink:href="#m43b9528203" x="52.160938" y="206.598133" style="fill: #008000; stroke: #008000"/>
    </g>
   </g>
   <g id="PathCollection_4">
    <g clip-path="url(#pc687cf4db0)">
     <use xlink:href="#m508718cd73" x="481.350937" y="206.598117" style="fill: #ff0000; stroke: #ff0000"/>
    </g>
   </g>
  </g>
  <g id="axes_2">
   <g id="patch_10">
    <path d="M 52.160938 817.478125 
L 481.350937 817.478125 
L 481.350937 448.918125 
L 52.160938 448.918125 
z
" style="fill: #ffffff"/>
   </g>
   <g id="Quiver_1">
    <path d="M 481.317491 637.993407 
L 479.802772 637.946167 
L 480.808332 640.124521 
L 470.184136 636.572693 
L 481.009012 633.6898 
L 479.869665 635.80126 
L 481.384384 635.8485 
L 481.317491 637.993407 
" clip-path="url(#p5f479a91af)" style="fill: #ff0000; fill-opacity: 0.9"/>
    <path d="M 474.829292 651.023663 
L 472.061805 650.975252 
L 473.097083 653.13964 
L 462.425273 649.733543 
L 473.209682 646.702775 
L 472.099338 648.82963 
L 474.866825 648.878041 
L 474.829292 651.023663 
" clip-path="url(#p5f479a91af)" style="fill: #ff0000; fill-opacity: 0.9"/>
    <path d="M 470.488515 665.914865 
L 467.19272 665.840234 
L 468.216838 668.009925 
L 457.56271 664.548918 
L 468.362582 661.573725 
L 467.241301 663.694834 
L 470.537097 663.769465 
L 470.488515 665.914865 
" clip-path="url(#p5f479a91af)" style="fill: #ff0000; fill-opacity: 0.9"/>
    <path d="M 461.816535 677.083316 
L 457.971649 676.990958 
L 458.992781 679.162055 
L 448.343425 675.686393 
L 459.147381 672.726062 
L 458.023182 674.845626 
L 461.868068 674.937985 
L 461.816535 677.083316 
" clip-path="url(#p5f479a91af)" style="fill: #ff0000; fill-opacity: 0.9"/>
    <path d="M 455.30776 690.113057 
L 451.240531 689.992985 
L 452.249713 692.169663 
L 441.619623 688.635515 
L 452.439688 685.734616 
L 451.303856 687.847969 
L 455.371085 687.968042 
L 455.30776 690.113057 
" clip-path="url(#p5f479a91af)" style="fill: #ff0000; fill-opacity: 0.9"/>
    <path d="M 448.800246 703.142809 
L 443.967244 702.979221 
L 444.96701 705.16024 
L 434.352293 701.580183 
L 445.184794 698.726075 
L 444.039839 700.834499 
L 448.872841 700.998087 
L 448.800246 703.142809 
" clip-path="url(#p5f479a91af)" style="fill: #ff0000; fill-opacity: 0.9"/>
    <path d="M 437.949142 712.449362 
L 432.784669 712.211962 
L 433.757971 714.404919 
L 423.187351 710.696686 
L 434.053594 707.97386 
L 432.88321 710.068276 
L 438.047683 710.305676 
L 437.949142 712.449362 
" clip-path="url(#p5f479a91af)" style="fill: #ff0000; fill-opacity: 0.9"/>
    <path d="M 427.102495 721.756007 
L 421.934981 721.477301 
L 422.890826 723.677923 
L 412.350007 719.885807 
L 423.237544 717.249416 
L 422.050554 719.334465 
L 427.218067 719.613172 
L 427.102495 721.756007 
" clip-path="url(#p5f479a91af)" style="fill: #ff0000; fill-opacity: 0.9"/>
    <path d="M 414.012756 729.081212 
L 413.06179 728.939444 
L 413.729221 730.983143 
L 404.644868 726.712572 
L 414.579826 725.27735 
L 413.345325 727.037513 
L 414.296291 727.179281 
L 414.012756 729.081212 
" clip-path="url(#p5f479a91af)" style="fill: #ff0000; fill-opacity: 0.9"/>
    <path d="M 396.643357 732.1925 
L 396.303931 732.022344 
L 396.303044 732.871352 
L 393.419254 730.151511 
L 397.323982 730.834797 
L 396.644244 731.343492 
L 396.98367 731.513649 
L 396.643357 732.1925 
" clip-path="url(#p5f479a91af)" style="fill: #ff0000; fill-opacity: 0.9"/>
    <path d="M 381.498232 728.928109 
L 385.610799 728.379417 
L 384.263453 726.394213 
L 395.324654 728.165892 
L 385.114837 732.775518 
L 385.894593 730.506519 
L 381.782027 731.055211 
L 381.498232 728.928109 
" clip-path="url(#p5f479a91af)" style="fill: #ff0000; fill-opacity: 0.9"/>
    <path d="M 366.355382 723.340238 
L 372.989814 722.647917 
L 371.699907 720.624919 
L 382.705799 722.712828 
L 372.368086 727.028001 
L 373.21254 724.782277 
L 366.578109 725.474598 
L 366.355382 723.340238 
" clip-path="url(#p5f479a91af)" style="fill: #ff0000; fill-opacity: 0.9"/>
    <path d="M 353.373636 715.892348 
L 361.475706 715.23055 
L 360.231587 713.179076 
L 371.187778 715.513792 
L 360.755702 719.595556 
L 361.65041 717.369377 
L 353.54834 718.031175 
L 353.373636 715.892348 
" clip-path="url(#p5f479a91af)" style="fill: #ff0000; fill-opacity: 0.9"/>
    <path d="M 340.40338 708.444383 
L 350.986981 707.932348 
L 349.81156 705.840755 
L 360.684325 708.537419 
L 350.12266 712.271083 
L 351.090681 710.07579 
L 340.50708 710.587826 
L 340.40338 708.444383 
" clip-path="url(#p5f479a91af)" style="fill: #ff0000; fill-opacity: 0.9"/>
    <path d="M 331.728087 697.276141 
L 344.463766 696.602929 
L 343.279009 694.51661 
L 354.163716 697.16466 
L 343.618841 700.945484 
L 344.577043 698.745888 
L 331.841364 699.419099 
L 331.728087 697.276141 
" clip-path="url(#p5f479a91af)" style="fill: #ff0000; fill-opacity: 0.9"/>
    <path d="M 320.897133 687.968715 
L 335.574558 687.29141 
L 334.403802 685.197202 
L 345.270528 687.918096 
L 334.700567 691.628208 
L 335.67348 689.435079 
L 320.996055 690.112384 
L 320.897133 687.968715 
" clip-path="url(#p5f479a91af)" style="fill: #ff0000; fill-opacity: 0.9"/>
    <path d="M 310.063337 678.661453 
L 326.144037 677.984549 
L 324.981759 675.885624 
L 335.837393 678.65044 
L 325.252515 682.317778 
L 326.234289 680.1286 
L 310.153589 680.805504 
L 310.063337 678.661453 
" clip-path="url(#p5f479a91af)" style="fill: #ff0000; fill-opacity: 0.9"/>
    <path d="M 301.399673 667.492702 
L 317.430596 666.920338 
L 316.281735 664.814039 
L 327.119507 667.648066 
L 316.511444 671.247789 
L 317.507166 669.064921 
L 301.476243 669.637285 
L 301.399673 667.492702 
" clip-path="url(#p5f479a91af)" style="fill: #ff0000; fill-opacity: 0.9"/>
    <path d="M 292.726291 656.324324 
L 308.724304 655.710157 
L 307.569796 653.606948 
L 318.415132 656.41189 
L 307.816764 660.040059 
L 308.806627 657.854528 
L 292.808614 658.468694 
L 292.726291 656.324324 
" clip-path="url(#p5f479a91af)" style="fill: #ff0000; fill-opacity: 0.9"/>
    <path d="M 284.056201 645.155823 
L 299.210436 644.579919 
L 298.056742 642.476264 
L 308.900992 645.2854 
L 298.301222 648.90947 
L 299.291929 646.724321 
L 284.137694 647.300225 
L 284.056201 645.155823 
" clip-path="url(#p5f479a91af)" style="fill: #ff0000; fill-opacity: 0.9"/>
    <path d="M 275.387905 633.987256 
L 291.355318 633.413397 
L 290.205961 631.307369 
L 301.044399 634.138845 
L 290.437184 637.741065 
L 291.432392 635.557963 
L 275.46498 636.131822 
L 275.387905 633.987256 
" clip-path="url(#p5f479a91af)" style="fill: #ff0000; fill-opacity: 0.9"/>
    <path d="M 266.727615 622.818453 
L 281.853102 622.419061 
L 280.723856 620.302181 
L 291.534835 623.236761 
L 280.89379 626.737787 
L 281.909747 624.564263 
L 266.78426 624.963655 
L 266.727615 622.818453 
" clip-path="url(#p5f479a91af)" style="fill: #ff0000; fill-opacity: 0.9"/>
    <path d="M 258.040905 611.650519 
L 270.596113 611.129042 
L 269.435008 609.029468 
L 280.289097 611.800347 
L 269.702172 615.461772 
L 270.685168 613.273144 
L 258.12996 613.79462 
L 258.040905 611.650519 
" clip-path="url(#p5f479a91af)" style="fill: #ff0000; fill-opacity: 0.9"/>
    <path d="M 249.37693 600.481783 
L 262.244821 600.0258 
L 261.096524 597.919194 
L 271.933537 600.756122 
L 261.324511 604.353006 
L 262.320817 602.170404 
L 249.452925 602.626387 
L 249.37693 600.481783 
" clip-path="url(#p5f479a91af)" style="fill: #ff0000; fill-opacity: 0.9"/>
    <path d="M 240.710172 589.313172 
L 254.780106 588.863814 
L 253.639176 586.753208 
L 264.46621 589.627987 
L 253.84468 593.187778 
L 254.848607 591.008671 
L 240.778673 591.458028 
L 240.710172 589.313172 
" clip-path="url(#p5f479a91af)" style="fill: #ff0000; fill-opacity: 0.9"/>
    <path d="M 232.026681 578.14518 
L 246.819863 577.493297 
L 245.653455 575.396664 
L 256.514512 578.140104 
L 245.936874 581.828272 
L 246.914335 579.637166 
L 232.121154 580.28905 
L 232.026681 578.14518 
" clip-path="url(#p5f479a91af)" style="fill: #ff0000; fill-opacity: 0.9"/>
    <path d="M 221.184497 568.838296 
L 238.20631 568.023703 
L 237.031983 565.931495 
L 247.903336 568.633847 
L 237.339719 572.361986 
L 238.308889 570.1672 
L 221.287075 570.981793 
L 221.184497 568.838296 
" clip-path="url(#p5f479a91af)" style="fill: #ff0000; fill-opacity: 0.9"/>
    <path d="M 210.340271 559.531534 
L 227.308867 558.622732 
L 226.12266 556.537238 
L 237.009206 559.177716 
L 226.466964 562.965874 
L 227.423635 560.765611 
L 210.455039 561.674413 
L 210.340271 559.531534 
" clip-path="url(#p5f479a91af)" style="fill: #ff0000; fill-opacity: 0.9"/>
    <path d="M 199.486329 550.225427 
L 213.752796 549.249956 
L 212.535932 547.182199 
L 223.46027 549.661686 
L 212.975096 553.605052 
L 213.899183 551.390907 
L 199.632717 552.366378 
L 199.486329 550.225427 
" clip-path="url(#p5f479a91af)" style="fill: #ff0000; fill-opacity: 0.9"/>
    <path d="M 186.459008 542.781464 
L 199.621384 541.614497 
L 198.363087 539.57169 
L 209.335186 541.830463 
L 198.931631 545.984385 
L 199.810899 543.752063 
L 186.648523 544.919029 
L 186.459008 542.781464 
" clip-path="url(#p5f479a91af)" style="fill: #ff0000; fill-opacity: 0.9"/>
    <path d="M 171.084742 537.448339 
L 171.902407 537.152698 
L 170.493462 535.813008 
L 179.557034 535.309603 
L 172.267302 540.718999 
L 172.493687 538.788029 
L 171.676022 539.083669 
L 171.084742 537.448339 
" clip-path="url(#p5f479a91af)" style="fill: #ff0000; fill-opacity: 0.9"/>
    <path d="M 155.958162 541.159783 
L 154.925797 540.910947 
L 155.460491 543.224514 
L 145.883345 537.63906 
L 156.953505 537.030322 
L 155.423469 538.846217 
L 156.455834 539.095053 
L 155.958162 541.159783 
" clip-path="url(#p5f479a91af)" style="fill: #ff0000; fill-opacity: 0.9"/>
    <path d="M 138.753187 544.917275 
L 113.361085 542.232942 
L 114.202512 544.479801 
L 103.870624 540.150701 
L 114.87932 538.077626 
L 113.586688 540.098883 
L 138.978789 542.783217 
L 138.753187 544.917275 
" clip-path="url(#p5f479a91af)" style="fill: #ff0000; fill-opacity: 0.9"/>
    <path d="M 125.791504 552.366674 
L 97.063548 550.52279 
L 97.996866 552.73306 
L 87.49533 548.833477 
L 98.409227 546.30843 
L 97.201002 548.381247 
L 125.928957 550.225131 
L 125.791504 552.366674 
" clip-path="url(#p5f479a91af)" style="fill: #ff0000; fill-opacity: 0.9"/>
    <path d="M 114.962208 561.674276 
L 73.149223 559.33672 
L 74.100743 561.539216 
L 63.567395 557.726397 
L 74.46009 555.111402 
L 73.269006 557.194116 
L 115.08199 559.531671 
L 114.962208 561.674276 
" clip-path="url(#p5f479a91af)" style="fill: #ff0000; fill-opacity: 0.9"/>
    <path d="M 104.132328 570.981776 
L 64.76985 569.085144 
L 65.738302 571.280247 
L 55.175906 567.548652 
L 66.048142 564.849858 
L 64.87313 566.941681 
L 104.235608 568.838313 
L 104.132328 570.981776 
" clip-path="url(#p5f479a91af)" style="fill: #ff0000; fill-opacity: 0.9"/>
    <path d="M 93.299338 580.289082 
L 67.369406 579.164322 
L 68.348376 581.354754 
L 57.768202 577.673867 
L 68.627368 574.922952 
L 67.462404 577.020388 
L 93.392335 578.145148 
L 93.299338 580.289082 
" clip-path="url(#p5f479a91af)" style="fill: #ff0000; fill-opacity: 0.9"/>
    <path d="M 84.634264 591.457789 
L 52.362972 590.221717 
L 53.353025 592.407162 
L 42.75434 588.77992 
L 53.599431 585.974029 
L 52.445107 588.077339 
L 84.716399 589.313411 
L 84.634264 591.457789 
" clip-path="url(#p5f479a91af)" style="fill: #ff0000; fill-opacity: 0.9"/>
    <path d="M 75.963436 602.626261 
L 42.510848 601.33485 
L 43.500244 603.520594 
L 32.902651 599.890159 
L 43.748587 597.087535 
L 42.593629 599.190498 
L 76.046217 600.481908 
L 75.963436 602.626261 
" clip-path="url(#p5f479a91af)" style="fill: #ff0000; fill-opacity: 0.9"/>
    <path d="M 67.297971 613.794929 
L 34.141752 612.671022 
L 35.141411 614.85209 
L 24.52687 611.271512 
L 35.359512 608.417936 
L 34.214452 610.526304 
L 67.370671 611.65021 
L 67.297971 613.794929 
" clip-path="url(#p5f479a91af)" style="fill: #ff0000; fill-opacity: 0.9"/>
    <path d="M 58.626037 624.963364 
L 29.540974 623.938647 
L 30.537725 626.121045 
L 19.927966 622.526323 
L 30.764401 619.687187 
L 29.616532 621.794027 
L 58.701596 622.818745 
L 58.626037 624.963364 
" clip-path="url(#p5f479a91af)" style="fill: #ff0000; fill-opacity: 0.9"/>
   </g>
   <g id="matplotlib.axis_3">
    <g id="xtick_7">
     <g id="line2d_18">
      <g>
       <use xlink:href="#mae55211ec6" x="52.160938" y="817.478125" style="stroke: #000000; stroke-width: 0.8"/>
      </g>
     </g>
     <g id="text_24">
      <!-- 0.0 -->
      <g transform="translate(44.209375 832.076562) scale(0.1 -0.1)">
       <use xlink:href="#DejaVuSans-30"/>
       <use xlink:href="#DejaVuSans-2e" transform="translate(63.623047 0)"/>
       <use xlink:href="#DejaVuSans-30" transform="translate(95.410156 0)"/>
      </g>
     </g>
    </g>
    <g id="xtick_8">
     <g id="line2d_19">
      <g>
       <use xlink:href="#mae55211ec6" x="137.998938" y="817.478125" style="stroke: #000000; stroke-width: 0.8"/>
      </g>
     </g>
     <g id="text_25">
      <!-- 0.2 -->
      <g transform="translate(130.047375 832.076562) scale(0.1 -0.1)">
       <use xlink:href="#DejaVuSans-30"/>
       <use xlink:href="#DejaVuSans-2e" transform="translate(63.623047 0)"/>
       <use xlink:href="#DejaVuSans-32" transform="translate(95.410156 0)"/>
      </g>
     </g>
    </g>
    <g id="xtick_9">
     <g id="line2d_20">
      <g>
       <use xlink:href="#mae55211ec6" x="223.836938" y="817.478125" style="stroke: #000000; stroke-width: 0.8"/>
      </g>
     </g>
     <g id="text_26">
      <!-- 0.4 -->
      <g transform="translate(215.885375 832.076562) scale(0.1 -0.1)">
       <use xlink:href="#DejaVuSans-30"/>
       <use xlink:href="#DejaVuSans-2e" transform="translate(63.623047 0)"/>
       <use xlink:href="#DejaVuSans-34" transform="translate(95.410156 0)"/>
      </g>
     </g>
    </g>
    <g id="xtick_10">
     <g id="line2d_21">
      <g>
       <use xlink:href="#mae55211ec6" x="309.674937" y="817.478125" style="stroke: #000000; stroke-width: 0.8"/>
      </g>
     </g>
     <g id="text_27">
      <!-- 0.6 -->
      <g transform="translate(301.723375 832.076562) scale(0.1 -0.1)">
       <use xlink:href="#DejaVuSans-30"/>
       <use xlink:href="#DejaVuSans-2e" transform="translate(63.623047 0)"/>
       <use xlink:href="#DejaVuSans-36" transform="translate(95.410156 0)"/>
      </g>
     </g>
    </g>
    <g id="xtick_11">
     <g id="line2d_22">
      <g>
       <use xlink:href="#mae55211ec6" x="395.512938" y="817.478125" style="stroke: #000000; stroke-width: 0.8"/>
      </g>
     </g>
     <g id="text_28">
      <!-- 0.8 -->
      <g transform="translate(387.561375 832.076562) scale(0.1 -0.1)">
       <use xlink:href="#DejaVuSans-30"/>
       <use xlink:href="#DejaVuSans-2e" transform="translate(63.623047 0)"/>
       <use xlink:href="#DejaVuSans-38" transform="translate(95.410156 0)"/>
      </g>
     </g>
    </g>
    <g id="xtick_12">
     <g id="line2d_23">
      <g>
       <use xlink:href="#mae55211ec6" x="481.350937" y="817.478125" style="stroke: #000000; stroke-width: 0.8"/>
      </g>
     </g>
     <g id="text_29">
      <!-- 1.0 -->
      <g transform="translate(473.399375 832.076562) scale(0.1 -0.1)">
       <use xlink:href="#DejaVuSans-31"/>
       <use xlink:href="#DejaVuSans-2e" transform="translate(63.623047 0)"/>
       <use xlink:href="#DejaVuSans-30" transform="translate(95.410156 0)"/>
      </g>
     </g>
    </g>
    <g id="text_30">
     <!-- x -->
     <g transform="translate(263.796562 845.754687) scale(0.1 -0.1)">
      <use xlink:href="#DejaVuSans-78"/>
     </g>
    </g>
   </g>
   <g id="matplotlib.axis_4">
    <g id="ytick_10">
     <g id="line2d_24">
      <g>
       <use xlink:href="#mb24d5b49b9" x="52.160938" y="817.478125" style="stroke: #000000; stroke-width: 0.8"/>
      </g>
     </g>
     <g id="text_31">
      <!-- −2.0 -->
      <g transform="translate(20.878125 821.277344) scale(0.1 -0.1)">
       <use xlink:href="#DejaVuSans-2212"/>
       <use xlink:href="#DejaVuSans-32" transform="translate(83.789062 0)"/>
       <use xlink:href="#DejaVuSans-2e" transform="translate(147.412109 0)"/>
       <use xlink:href="#DejaVuSans-30" transform="translate(179.199219 0)"/>
      </g>
     </g>
    </g>
    <g id="ytick_11">
     <g id="line2d_25">
      <g>
       <use xlink:href="#mb24d5b49b9" x="52.160938" y="771.408127" style="stroke: #000000; stroke-width: 0.8"/>
      </g>
     </g>
     <g id="text_32">
      <!-- −1.5 -->
      <g transform="translate(20.878125 775.207346) scale(0.1 -0.1)">
       <use xlink:href="#DejaVuSans-2212"/>
       <use xlink:href="#DejaVuSans-31" transform="translate(83.789062 0)"/>
       <use xlink:href="#DejaVuSans-2e" transform="translate(147.412109 0)"/>
       <use xlink:href="#DejaVuSans-35" transform="translate(179.199219 0)"/>
      </g>
     </g>
    </g>
    <g id="ytick_12">
     <g id="line2d_26">
      <g>
       <use xlink:href="#mb24d5b49b9" x="52.160938" y="725.338129" style="stroke: #000000; stroke-width: 0.8"/>
      </g>
     </g>
     <g id="text_33">
      <!-- −1.0 -->
      <g transform="translate(20.878125 729.137348) scale(0.1 -0.1)">
       <use xlink:href="#DejaVuSans-2212"/>
       <use xlink:href="#DejaVuSans-31" transform="translate(83.789062 0)"/>
       <use xlink:href="#DejaVuSans-2e" transform="translate(147.412109 0)"/>
       <use xlink:href="#DejaVuSans-30" transform="translate(179.199219 0)"/>
      </g>
     </g>
    </g>
    <g id="ytick_13">
     <g id="line2d_27">
      <g>
       <use xlink:href="#mb24d5b49b9" x="52.160938" y="679.268131" style="stroke: #000000; stroke-width: 0.8"/>
      </g>
     </g>
     <g id="text_34">
      <!-- −0.5 -->
      <g transform="translate(20.878125 683.06735) scale(0.1 -0.1)">
       <use xlink:href="#DejaVuSans-2212"/>
       <use xlink:href="#DejaVuSans-30" transform="translate(83.789062 0)"/>
       <use xlink:href="#DejaVuSans-2e" transform="translate(147.412109 0)"/>
       <use xlink:href="#DejaVuSans-35" transform="translate(179.199219 0)"/>
      </g>
     </g>
    </g>
    <g id="ytick_14">
     <g id="line2d_28">
      <g>
       <use xlink:href="#mb24d5b49b9" x="52.160938" y="633.198133" style="stroke: #000000; stroke-width: 0.8"/>
      </g>
     </g>
     <g id="text_35">
      <!-- 0.0 -->
      <g transform="translate(29.257812 636.997352) scale(0.1 -0.1)">
       <use xlink:href="#DejaVuSans-30"/>
       <use xlink:href="#DejaVuSans-2e" transform="translate(63.623047 0)"/>
       <use xlink:href="#DejaVuSans-30" transform="translate(95.410156 0)"/>
      </g>
     </g>
    </g>
    <g id="ytick_15">
     <g id="line2d_29">
      <g>
       <use xlink:href="#mb24d5b49b9" x="52.160938" y="587.128135" style="stroke: #000000; stroke-width: 0.8"/>
      </g>
     </g>
     <g id="text_36">
      <!-- 0.5 -->
      <g transform="translate(29.257812 590.927354) scale(0.1 -0.1)">
       <use xlink:href="#DejaVuSans-30"/>
       <use xlink:href="#DejaVuSans-2e" transform="translate(63.623047 0)"/>
       <use xlink:href="#DejaVuSans-35" transform="translate(95.410156 0)"/>
      </g>
     </g>
    </g>
    <g id="ytick_16">
     <g id="line2d_30">
      <g>
       <use xlink:href="#mb24d5b49b9" x="52.160938" y="541.058137" style="stroke: #000000; stroke-width: 0.8"/>
      </g>
     </g>
     <g id="text_37">
      <!-- 1.0 -->
      <g transform="translate(29.257812 544.857356) scale(0.1 -0.1)">
       <use xlink:href="#DejaVuSans-31"/>
       <use xlink:href="#DejaVuSans-2e" transform="translate(63.623047 0)"/>
       <use xlink:href="#DejaVuSans-30" transform="translate(95.410156 0)"/>
      </g>
     </g>
    </g>
    <g id="ytick_17">
     <g id="line2d_31">
      <g>
       <use xlink:href="#mb24d5b49b9" x="52.160938" y="494.988139" style="stroke: #000000; stroke-width: 0.8"/>
      </g>
     </g>
     <g id="text_38">
      <!-- 1.5 -->
      <g transform="translate(29.257812 498.787358) scale(0.1 -0.1)">
       <use xlink:href="#DejaVuSans-31"/>
       <use xlink:href="#DejaVuSans-2e" transform="translate(63.623047 0)"/>
       <use xlink:href="#DejaVuSans-35" transform="translate(95.410156 0)"/>
      </g>
     </g>
    </g>
    <g id="ytick_18">
     <g id="line2d_32">
      <g>
       <use xlink:href="#mb24d5b49b9" x="52.160938" y="448.918141" style="stroke: #000000; stroke-width: 0.8"/>
      </g>
     </g>
     <g id="text_39">
      <!-- 2.0 -->
      <g transform="translate(29.257812 452.71736) scale(0.1 -0.1)">
       <use xlink:href="#DejaVuSans-32"/>
       <use xlink:href="#DejaVuSans-2e" transform="translate(63.623047 0)"/>
       <use xlink:href="#DejaVuSans-30" transform="translate(95.410156 0)"/>
      </g>
     </g>
    </g>
    <g id="text_40">
     <!-- y -->
     <g transform="translate(14.798438 636.1575) rotate(-90) scale(0.1 -0.1)">
      <use xlink:href="#DejaVuSans-79"/>
     </g>
    </g>
   </g>
   <g id="QuadContourSet_3">
    <path d="M 481.350937 636.920953 
L 479.183311 638.782367 
L 479.183311 646.228024 
L 474.848059 649.950852 
L 474.848059 653.673681 
L 470.512806 657.396509 
L 470.512806 664.842165 
L 466.177554 668.564994 
L 466.177554 672.287822 
L 461.842301 676.01065 
L 461.842301 679.733479 
L 457.507049 683.456307 
L 457.507049 687.179135 
L 453.171796 690.901963 
L 453.171796 694.624792 
L 448.836544 698.34762 
L 448.836544 702.070448 
L 420.657402 726.268832 
L 416.32215 726.268832 
L 411.986897 729.99166 
L 398.98114 729.99166 
L 394.645887 733.714489 
L 390.310634 733.714489 
L 385.975382 729.99166 
L 377.304877 729.99166 
L 372.969624 726.268832 
L 368.634372 726.268832 
L 364.299119 722.546004 
L 359.963867 722.546004 
L 351.293362 715.100347 
L 346.958109 715.100347 
L 336.119978 705.793277 
L 336.119978 702.070448 
L 305.77321 676.01065 
L 305.77321 672.287822 
L 297.102705 664.842165 
L 297.102705 661.119337 
L 284.096948 649.950852 
L 284.096948 646.228024 
L 275.426443 638.782367 
L 275.426443 635.059539 
L 266.755938 627.613883 
L 266.755938 623.891054 
L 262.420685 620.168226 
L 262.420685 616.445398 
L 253.75018 608.999741 
L 253.75018 605.276913 
L 245.079675 597.831256 
L 245.079675 594.108428 
L 232.073917 582.939943 
L 232.073917 579.217115 
L 195.224271 547.573074 
L 190.889018 547.573074 
L 186.553766 543.850246 
L 182.218513 543.850246 
L 177.883261 540.127418 
L 173.548008 540.127418 
L 169.212756 536.40459 
L 160.542251 536.40459 
L 156.206998 540.127418 
L 147.536493 540.127418 
L 143.201241 543.850246 
L 138.865988 543.850246 
L 130.195483 551.295903 
L 125.86023 551.295903 
L 93.345836 579.217115 
L 93.345836 582.939943 
L 84.675331 590.3856 
L 84.675331 594.108428 
L 71.669574 605.276913 
L 71.669574 608.999741 
L 62.999069 616.445398 
L 62.999069 620.168226 
L 58.663816 623.891054 
L 58.663816 627.613883 
L 52.160938 633.198125 
L 52.160938 633.198125 
" clip-path="url(#p5f479a91af)" style="fill: none; stroke: #0000ff; stroke-width: 2"/>
   </g>
   <g id="patch_11">
    <path d="M 52.160938 817.478125 
L 52.160938 448.918125 
" style="fill: none; stroke: #000000; stroke-width: 0.8; stroke-linejoin: miter; stroke-linecap: square"/>
   </g>
   <g id="patch_12">
    <path d="M 481.350937 817.478125 
L 481.350937 448.918125 
" style="fill: none; stroke: #000000; stroke-width: 0.8; stroke-linejoin: miter; stroke-linecap: square"/>
   </g>
   <g id="patch_13">
    <path d="M 52.160938 817.478125 
L 481.350937 817.478125 
" style="fill: none; stroke: #000000; stroke-width: 0.8; stroke-linejoin: miter; stroke-linecap: square"/>
   </g>
   <g id="patch_14">
    <path d="M 52.160938 448.918125 
L 481.350937 448.918125 
" style="fill: none; stroke: #000000; stroke-width: 0.8; stroke-linejoin: miter; stroke-linecap: square"/>
   </g>
   <g id="text_41">
    <!-- NN Gradient on Learned Boundary -->
    <g transform="translate(163.39375 442.918125) scale(0.12 -0.12)">
     <defs>
      <path id="DejaVuSans-47" d="M 3809 666 
L 3809 1919 
L 2778 1919 
L 2778 2438 
L 4434 2438 
L 4434 434 
Q 4069 175 3628 42 
Q 3188 -91 2688 -91 
Q 1594 -91 976 548 
Q 359 1188 359 2328 
Q 359 3472 976 4111 
Q 1594 4750 2688 4750 
Q 3144 4750 3555 4637 
Q 3966 4525 4313 4306 
L 4313 3634 
Q 3963 3931 3569 4081 
Q 3175 4231 2741 4231 
Q 1884 4231 1454 3753 
Q 1025 3275 1025 2328 
Q 1025 1384 1454 906 
Q 1884 428 2741 428 
Q 3075 428 3337 486 
Q 3600 544 3809 666 
z
" transform="scale(0.015625)"/>
      <path id="DejaVuSans-4c" d="M 628 4666 
L 1259 4666 
L 1259 531 
L 3531 531 
L 3531 0 
L 628 0 
L 628 4666 
z
" transform="scale(0.015625)"/>
      <path id="DejaVuSans-42" d="M 1259 2228 
L 1259 519 
L 2272 519 
Q 2781 519 3026 730 
Q 3272 941 3272 1375 
Q 3272 1813 3026 2020 
Q 2781 2228 2272 2228 
L 1259 2228 
z
M 1259 4147 
L 1259 2741 
L 2194 2741 
Q 2656 2741 2882 2914 
Q 3109 3088 3109 3444 
Q 3109 3797 2882 3972 
Q 2656 4147 2194 4147 
L 1259 4147 
z
M 628 4666 
L 2241 4666 
Q 2963 4666 3353 4366 
Q 3744 4066 3744 3513 
Q 3744 3084 3544 2831 
Q 3344 2578 2956 2516 
Q 3422 2416 3680 2098 
Q 3938 1781 3938 1306 
Q 3938 681 3513 340 
Q 3088 0 2303 0 
L 628 0 
L 628 4666 
z
" transform="scale(0.015625)"/>
     </defs>
     <use xlink:href="#DejaVuSans-4e"/>
     <use xlink:href="#DejaVuSans-4e" transform="translate(74.804688 0)"/>
     <use xlink:href="#DejaVuSans-20" transform="translate(149.609375 0)"/>
     <use xlink:href="#DejaVuSans-47" transform="translate(181.396484 0)"/>
     <use xlink:href="#DejaVuSans-72" transform="translate(258.886719 0)"/>
     <use xlink:href="#DejaVuSans-61" transform="translate(300 0)"/>
     <use xlink:href="#DejaVuSans-64" transform="translate(361.279297 0)"/>
     <use xlink:href="#DejaVuSans-69" transform="translate(424.755859 0)"/>
     <use xlink:href="#DejaVuSans-65" transform="translate(452.539062 0)"/>
     <use xlink:href="#DejaVuSans-6e" transform="translate(514.0625 0)"/>
     <use xlink:href="#DejaVuSans-74" transform="translate(577.441406 0)"/>
     <use xlink:href="#DejaVuSans-20" transform="translate(616.650391 0)"/>
     <use xlink:href="#DejaVuSans-6f" transform="translate(648.4375 0)"/>
     <use xlink:href="#DejaVuSans-6e" transform="translate(709.619141 0)"/>
     <use xlink:href="#DejaVuSans-20" transform="translate(772.998047 0)"/>
     <use xlink:href="#DejaVuSans-4c" transform="translate(804.785156 0)"/>
     <use xlink:href="#DejaVuSans-65" transform="translate(858.748047 0)"/>
     <use xlink:href="#DejaVuSans-61" transform="translate(920.271484 0)"/>
     <use xlink:href="#DejaVuSans-72" transform="translate(981.550781 0)"/>
     <use xlink:href="#DejaVuSans-6e" transform="translate(1020.914062 0)"/>
     <use xlink:href="#DejaVuSans-65" transform="translate(1084.292969 0)"/>
     <use xlink:href="#DejaVuSans-64" transform="translate(1145.816406 0)"/>
     <use xlink:href="#DejaVuSans-20" transform="translate(1209.292969 0)"/>
     <use xlink:href="#DejaVuSans-42" transform="translate(1241.080078 0)"/>
     <use xlink:href="#DejaVuSans-6f" transform="translate(1309.683594 0)"/>
     <use xlink:href="#DejaVuSans-75" transform="translate(1370.865234 0)"/>
     <use xlink:href="#DejaVuSans-6e" transform="translate(1434.244141 0)"/>
     <use xlink:href="#DejaVuSans-64" transform="translate(1497.623047 0)"/>
     <use xlink:href="#DejaVuSans-61" transform="translate(1561.099609 0)"/>
     <use xlink:href="#DejaVuSans-72" transform="translate(1622.378906 0)"/>
     <use xlink:href="#DejaVuSans-79" transform="translate(1663.492188 0)"/>
    </g>
   </g>
   <g id="legend_2">
    <g id="patch_15">
     <path d="M 350.55875 486.274375 
L 474.350937 486.274375 
Q 476.350937 486.274375 476.350937 484.274375 
L 476.350937 455.918125 
Q 476.350937 453.918125 474.350937 453.918125 
L 350.55875 453.918125 
Q 348.55875 453.918125 348.55875 455.918125 
L 348.55875 484.274375 
Q 348.55875 486.274375 350.55875 486.274375 
z
" style="fill: #ffffff; opacity: 0.8; stroke: #cccccc; stroke-linejoin: miter"/>
    </g>
    <g id="line2d_33">
     <path d="M 352.55875 462.016562 
L 362.55875 462.016562 
L 372.55875 462.016562 
" style="fill: none; stroke: #0000ff; stroke-width: 2; stroke-linecap: square"/>
    </g>
    <g id="text_42">
     <!-- Learned Boundary -->
     <g transform="translate(380.55875 465.516562) scale(0.1 -0.1)">
      <use xlink:href="#DejaVuSans-4c"/>
      <use xlink:href="#DejaVuSans-65" transform="translate(53.962891 0)"/>
      <use xlink:href="#DejaVuSans-61" transform="translate(115.486328 0)"/>
      <use xlink:href="#DejaVuSans-72" transform="translate(176.765625 0)"/>
      <use xlink:href="#DejaVuSans-6e" transform="translate(216.128906 0)"/>
      <use xlink:href="#DejaVuSans-65" transform="translate(279.507812 0)"/>
      <use xlink:href="#DejaVuSans-64" transform="translate(341.03125 0)"/>
      <use xlink:href="#DejaVuSans-20" transform="translate(404.507812 0)"/>
      <use xlink:href="#DejaVuSans-42" transform="translate(436.294922 0)"/>
      <use xlink:href="#DejaVuSans-6f" transform="translate(504.898438 0)"/>
      <use xlink:href="#DejaVuSans-75" transform="translate(566.080078 0)"/>
      <use xlink:href="#DejaVuSans-6e" transform="translate(629.458984 0)"/>
      <use xlink:href="#DejaVuSans-64" transform="translate(692.837891 0)"/>
      <use xlink:href="#DejaVuSans-61" transform="translate(756.314453 0)"/>
      <use xlink:href="#DejaVuSans-72" transform="translate(817.59375 0)"/>
      <use xlink:href="#DejaVuSans-79" transform="translate(858.707031 0)"/>
     </g>
    </g>
    <g id="line2d_34">
     <path d="M 352.55875 476.694687 
L 362.55875 476.694687 
L 372.55875 476.694687 
" style="fill: none; stroke: #ffffff; stroke-width: 1.5; stroke-linecap: square"/>
     <defs>
      <path id="md5203577e3" d="M 5 0 
L -5 -5 
L -5 5 
z
" style="stroke: #ffffff; stroke-linejoin: miter"/>
     </defs>
     <g>
      <use xlink:href="#md5203577e3" x="362.55875" y="476.694687" style="fill: #ff0000; stroke: #ffffff; stroke-linejoin: miter"/>
     </g>
    </g>
    <g id="text_43">
     <!-- Gradient Vector -->
     <g transform="translate(380.55875 480.194687) scale(0.1 -0.1)">
      <defs>
       <path id="DejaVuSans-56" d="M 1831 0 
L 50 4666 
L 709 4666 
L 2188 738 
L 3669 4666 
L 4325 4666 
L 2547 0 
L 1831 0 
z
" transform="scale(0.015625)"/>
      </defs>
      <use xlink:href="#DejaVuSans-47"/>
      <use xlink:href="#DejaVuSans-72" transform="translate(77.490234 0)"/>
      <use xlink:href="#DejaVuSans-61" transform="translate(118.603516 0)"/>
      <use xlink:href="#DejaVuSans-64" transform="translate(179.882812 0)"/>
      <use xlink:href="#DejaVuSans-69" transform="translate(243.359375 0)"/>
      <use xlink:href="#DejaVuSans-65" transform="translate(271.142578 0)"/>
      <use xlink:href="#DejaVuSans-6e" transform="translate(332.666016 0)"/>
      <use xlink:href="#DejaVuSans-74" transform="translate(396.044922 0)"/>
      <use xlink:href="#DejaVuSans-20" transform="translate(435.253906 0)"/>
      <use xlink:href="#DejaVuSans-56" transform="translate(467.041016 0)"/>
      <use xlink:href="#DejaVuSans-65" transform="translate(527.699219 0)"/>
      <use xlink:href="#DejaVuSans-63" transform="translate(589.222656 0)"/>
      <use xlink:href="#DejaVuSans-74" transform="translate(644.203125 0)"/>
      <use xlink:href="#DejaVuSans-6f" transform="translate(683.412109 0)"/>
      <use xlink:href="#DejaVuSans-72" transform="translate(744.59375 0)"/>
     </g>
    </g>
   </g>
  </g>
 </g>
 <defs>
  <clipPath id="pc687cf4db0">
   <rect x="52.160938" y="22.318125" width="429.19" height="368.56"/>
  </clipPath>
  <clipPath id="p5f479a91af">
   <rect x="52.160938" y="448.918125" width="429.19" height="368.56"/>
  </clipPath>
 </defs>
</svg>
